<?xml version="1.0" encoding="utf-8"?>
<!-- Generator: Adobe Illustrator 27.0.0, SVG Export Plug-In . SVG Version: 6.00 Build 0)  -->
<svg version="1.1" id="Layer_1" xmlns="http://www.w3.org/2000/svg" xmlns:xlink="http://www.w3.org/1999/xlink" x="0px" y="0px"
	 viewBox="0 0 1000 1000" style="enable-background:new 0 0 1000 1000;" xml:space="preserve">
<style type="text/css">
	.st0{display:none;fill:#201E5A;stroke:#FFFFFF;stroke-linejoin:round;stroke-miterlimit:10;}
	.st1{display:none;fill:#1F4386;stroke:#FFFFFF;stroke-linejoin:round;stroke-miterlimit:10;}
	.st2{enable-background:new    ;}
	.st3{fill:#4377BC;}
	.st4{clip-path:url(#SVGID_00000073695363431506998490000012953729315514234804_);enable-background:new    ;}
	.st5{fill:#2E58A8;}
	.st6{clip-path:url(#SVGID_00000103248901108755648700000010687844620778907791_);enable-background:new    ;}
	.st7{clip-path:url(#SVGID_00000121991871445413969670000001711041185454961801_);enable-background:new    ;}
	.st8{clip-path:url(#SVGID_00000178913360416291294400000004305028886876797108_);enable-background:new    ;}
	.st9{clip-path:url(#SVGID_00000150093411715612221820000002782499108965204361_);enable-background:new    ;}
	.st10{clip-path:url(#SVGID_00000000215842180108231500000009441554735326107297_);enable-background:new    ;}
	.st11{clip-path:url(#SVGID_00000031927503713712362760000004153945168173900190_);enable-background:new    ;}
	.st12{fill:#E6393B;stroke:#FFFFFF;stroke-width:3;stroke-linejoin:round;stroke-miterlimit:10;}
	.st13{fill:#201E5A;stroke:#FFFFFF;stroke-linejoin:round;stroke-miterlimit:10;}
	.st14{fill:#2E58A8;stroke:#FFFFFF;stroke-linejoin:round;stroke-miterlimit:10;}
	.st15{fill:#1F4386;stroke:#FFFFFF;stroke-linejoin:round;stroke-miterlimit:10;}
	.st16{clip-path:url(#SVGID_00000010282624049048296780000017659282007878674576_);enable-background:new    ;}
	.st17{clip-path:url(#SVGID_00000050663724782478101560000011458359468850916739_);enable-background:new    ;}
	.st18{clip-path:url(#SVGID_00000007413565972845133280000010613408302168192157_);enable-background:new    ;}
	.st19{clip-path:url(#SVGID_00000128472843765861921400000000208047430169449119_);enable-background:new    ;}
	.st20{clip-path:url(#SVGID_00000127726088210179080310000016201293525053933211_);enable-background:new    ;}
	.st21{clip-path:url(#SVGID_00000023974300817594235370000010631788314427889797_);enable-background:new    ;}
	.st22{clip-path:url(#SVGID_00000057146946756787397190000008122576997277119649_);enable-background:new    ;}
	.st23{clip-path:url(#SVGID_00000055688874763244155480000004712559563540665479_);enable-background:new    ;}
	.st24{clip-path:url(#SVGID_00000132059029843502359180000013682306492913743007_);enable-background:new    ;}
	.st25{clip-path:url(#SVGID_00000000203810498235691920000007459668580096981431_);enable-background:new    ;}
	.st26{clip-path:url(#SVGID_00000081636469595727032730000007002527228062447005_);enable-background:new    ;}
	.st27{clip-path:url(#SVGID_00000095306063949088148680000018007529322082475689_);enable-background:new    ;}
	.st28{clip-path:url(#SVGID_00000183934839310060471440000001438073209319653001_);enable-background:new    ;}
	.st29{clip-path:url(#SVGID_00000070813960486754026100000014755053264000009371_);enable-background:new    ;}
	.st30{fill:#1F4386;}
</style>
<path class="st0" d="M362.7,402l48.2,39.4c2.8,2.2,4.9,5.1,6.5,8.4c1.6,3.3,2.5,7.1,2.9,11.1c0.4,4.1,0.2,8.5-0.5,13
	c-0.7,4.5-2,9.3-3.8,14c-3.4,8.9-8.2,17.6-14,25.7c-5.9,8.2-12.9,15.8-20.6,22.5s-16.2,12.5-25,17.2c-8.8,4.6-18,7.9-27.3,9.7
	c-0.8,0.2-1.5,0.3-2.3,0.4s-1.5,0.2-2.2,0.3c-0.7,0.1-1.4,0.2-2.1,0.2c-0.7,0-1.4,0.1-2.1,0.1c-1.7,0.1-3.2,0-4.8-0.1
	c-1.5-0.1-3-0.3-4.3-0.6c-1.4-0.3-2.7-0.6-3.9-1c-1.2-0.4-2.4-0.9-3.5-1.5l-57-29.6c1.2,0.6,2.4,1.1,3.7,1.6
	c1.3,0.5,2.7,0.8,4.2,1.1s3,0.5,4.6,0.6c1.6,0.1,3.3,0.1,5.1,0.1c0.7,0,1.5-0.1,2.2-0.1s1.5-0.1,2.3-0.2c0.8-0.1,1.6-0.2,2.4-0.3
	s1.6-0.3,2.5-0.4c9.9-2,19.9-5.6,29.4-10.6c9.5-5,18.6-11.3,27-18.6c8.4-7.3,15.9-15.5,22.3-24.4c6.4-8.8,11.6-18.2,15.3-27.8
	c2-5.1,3.4-10.2,4.1-15.1c0.8-4.9,1-9.6,0.6-14c-0.4-4.4-1.4-8.4-3.1-12C367.9,407.4,365.6,404.4,362.7,402z"/>
<path class="st1" d="M639.7,357l28.3,44.3c1.7,2.6,3,5.6,3.8,8.8c0.9,3.2,1.3,6.7,1.3,10.4c0,3.7-0.3,7.5-1.1,11.5s-2,8.1-3.6,12.2
	c-3.7,9.4-8.7,18.4-14.7,26.8c-6,8.4-13.1,16.1-21,22.9c-7.9,6.7-16.6,12.5-25.8,16.9c-9.2,4.4-19,7.6-29.1,9c-4,0.6-8,1.2-12,1.8
	c-4,0.6-8,1.2-11.9,1.8c-4,0.6-7.9,1.2-11.9,1.8c-4,0.6-7.9,1.2-11.8,1.8l-39.8-33.5c4.2-0.7,8.5-1.3,12.8-2c4.3-0.7,8.5-1.3,12.8-2
	c4.3-0.7,8.6-1.3,12.9-2s8.6-1.3,12.9-2c10.9-1.7,21.5-5.1,31.5-9.9c10-4.9,19.4-11.1,28-18.4c8.5-7.3,16.2-15.7,22.8-24.8
	c6.5-9.1,12-18.9,16-29c1.8-4.5,3.1-8.9,4-13.2s1.3-8.5,1.3-12.4c0-4-0.5-7.7-1.4-11.1C642.9,363,641.5,359.9,639.7,357z"/>
<g>
	<g>
		<g class="st2">
			<g>
				<path id="SVGID_1_" class="st3" d="M196.5,473.8l60.1,41.8c-0.9,2.5-1.8,5.1-2.7,7.6c-0.9,2.5-1.8,5.1-2.7,7.6s-1.8,5.1-2.7,7.6
					c-0.9,2.5-1.8,5.1-2.7,7.6l-61.1-39.4c1-2.7,2-5.5,2.9-8.2c1-2.7,1.9-5.5,2.9-8.2c1-2.7,1.9-5.5,2.9-8.2
					C194.6,479.2,195.6,476.5,196.5,473.8z"/>
			</g>
			<g>
				<defs>
					<path id="SVGID_00000094589328461887785470000016953156116662743470_" d="M196.5,473.8l60.1,41.8c-0.9,2.5-1.8,5.1-2.7,7.6
						c-0.9,2.5-1.8,5.1-2.7,7.6s-1.8,5.1-2.7,7.6c-0.9,2.5-1.8,5.1-2.7,7.6l-61.1-39.4c1-2.7,2-5.5,2.9-8.2c1-2.7,1.9-5.5,2.9-8.2
						c1-2.7,1.9-5.5,2.9-8.2C194.6,479.2,195.6,476.5,196.5,473.8z"/>
				</defs>
				<clipPath id="SVGID_00000124852271484999400310000001318270727243075728_">
					<use xlink:href="#SVGID_00000094589328461887785470000016953156116662743470_"  style="overflow:visible;"/>
				</clipPath>
				<g style="clip-path:url(#SVGID_00000124852271484999400310000001318270727243075728_);enable-background:new    ;">
					<path class="st3" d="M196.5,473.8l60.1,41.8c-0.9,2.5-1.8,5.1-2.7,7.6c-0.9,2.5-1.8,5.1-2.7,7.6s-1.8,5.1-2.7,7.6
						c-0.9,2.5-1.8,5.1-2.7,7.6l-61.1-39.4c1-2.7,2-5.5,2.9-8.2c1-2.7,1.9-5.5,2.9-8.2c1-2.7,1.9-5.5,2.9-8.2
						C194.6,479.2,195.6,476.5,196.5,473.8"/>
				</g>
			</g>
		</g>
		<g class="st2">
			<g>
				<path id="SVGID_00000060714438358172994450000001696666770766412727_" class="st5" d="M256.9,457l56,43.3
					c-4.7,1.2-9.4,2.5-14.1,3.8c-4.7,1.3-9.4,2.5-14.1,3.8c-4.7,1.3-9.4,2.5-14,3.8c-4.7,1.3-9.3,2.5-14,3.8l-60.1-41.8
					c5-1.4,10-2.8,15-4.2c5-1.4,10-2.8,15.1-4.2c5-1.4,10.1-2.8,15.1-4.2C246.8,459.8,251.8,458.4,256.9,457z"/>
			</g>
			<g>
				<defs>
					<path id="SVGID_00000078745751989063711470000012441957635308176016_" d="M256.9,457l56,43.3c-4.7,1.2-9.4,2.5-14.1,3.8
						c-4.7,1.3-9.4,2.5-14.1,3.8c-4.7,1.3-9.4,2.5-14,3.8c-4.7,1.3-9.3,2.5-14,3.8l-60.1-41.8c5-1.4,10-2.8,15-4.2
						c5-1.4,10-2.8,15.1-4.2c5-1.4,10.1-2.8,15.1-4.2C246.8,459.8,251.8,458.4,256.9,457z"/>
				</defs>
				<clipPath id="SVGID_00000096750280519578594840000001119880942922654109_">
					<use xlink:href="#SVGID_00000078745751989063711470000012441957635308176016_"  style="overflow:visible;"/>
				</clipPath>
				<g style="clip-path:url(#SVGID_00000096750280519578594840000001119880942922654109_);enable-background:new    ;">
					<path class="st5" d="M256.9,457l56,43.3c-4.7,1.2-9.4,2.5-14.1,3.8c-4.7,1.3-9.4,2.5-14.1,3.8c-4.7,1.3-9.4,2.5-14,3.8
						c-4.7,1.3-9.3,2.5-14,3.8l-60.1-41.8c5-1.4,10-2.8,15-4.2c5-1.4,10-2.8,15.1-4.2c5-1.4,10.1-2.8,15.1-4.2
						C246.8,459.8,251.8,458.4,256.9,457"/>
				</g>
			</g>
		</g>
		<g class="st2">
			<g>
				<path id="SVGID_00000021814882112533250280000009680025958352825531_" class="st3" d="M266.7,429l55.2,45.4
					c-0.9,2.6-1.7,4.9-2.4,7c-0.7,2.1-1.4,4-2.1,6s-1.4,3.9-2.1,6c-0.7,2.1-1.5,4.4-2.4,7l-56-43.3c1-2.8,1.9-5.2,2.7-7.5
					c0.8-2.3,1.5-4.4,2.3-6.5s1.5-4.2,2.3-6.5C264.9,434.3,265.8,431.8,266.7,429z"/>
			</g>
			<g>
				<defs>
					<path id="SVGID_00000055692070667165716330000006329906344743282581_" d="M266.7,429l55.2,45.4c-0.9,2.6-1.7,4.9-2.4,7
						c-0.7,2.1-1.4,4-2.1,6s-1.4,3.9-2.1,6c-0.7,2.1-1.5,4.4-2.4,7l-56-43.3c1-2.8,1.9-5.2,2.7-7.5c0.8-2.3,1.5-4.4,2.3-6.5
						s1.5-4.2,2.3-6.5C264.9,434.3,265.8,431.8,266.7,429z"/>
				</defs>
				<clipPath id="SVGID_00000026138131263210542130000008739497527119635079_">
					<use xlink:href="#SVGID_00000055692070667165716330000006329906344743282581_"  style="overflow:visible;"/>
				</clipPath>
				<g style="clip-path:url(#SVGID_00000026138131263210542130000008739497527119635079_);enable-background:new    ;">
					<path class="st3" d="M266.7,429l55.2,45.4c-0.9,2.6-1.7,4.9-2.4,7c-0.7,2.1-1.4,4-2.1,6s-1.4,3.9-2.1,6c-0.7,2.1-1.5,4.4-2.4,7
						l-56-43.3c1-2.8,1.9-5.2,2.7-7.5c0.8-2.3,1.5-4.4,2.3-6.5s1.5-4.2,2.3-6.5C264.9,434.3,265.8,431.8,266.7,429"/>
				</g>
			</g>
		</g>
		<g class="st2">
			<g>
				<path id="SVGID_00000021817614473036634470000004161411271768149140_" class="st3" d="M174.9,534.3l62,37.5
					c-1.7,4.9-3.4,9.8-5.2,14.7c-1.7,4.9-3.5,9.8-5.2,14.7s-3.5,9.8-5.2,14.8c-1.7,4.9-3.5,9.9-5.2,14.8l-63.9-32.9
					c1.9-5.3,3.8-10.6,5.7-16s3.8-10.6,5.7-15.9s3.8-10.6,5.7-15.9C171.1,544.9,173,539.6,174.9,534.3z"/>
			</g>
			<g>
				<defs>
					<path id="SVGID_00000011027304611958359130000003279458871437361055_" d="M174.9,534.3l62,37.5c-1.7,4.9-3.4,9.8-5.2,14.7
						c-1.7,4.9-3.5,9.8-5.2,14.7s-3.5,9.8-5.2,14.8c-1.7,4.9-3.5,9.9-5.2,14.8l-63.9-32.9c1.9-5.3,3.8-10.6,5.7-16
						s3.8-10.6,5.7-15.9s3.8-10.6,5.7-15.9C171.1,544.9,173,539.6,174.9,534.3z"/>
				</defs>
				<clipPath id="SVGID_00000090998951648773176030000013524853479228775825_">
					<use xlink:href="#SVGID_00000011027304611958359130000003279458871437361055_"  style="overflow:visible;"/>
				</clipPath>
				<g style="clip-path:url(#SVGID_00000090998951648773176030000013524853479228775825_);enable-background:new    ;">
					<path class="st3" d="M174.9,534.3l62,37.5c-1.7,4.9-3.4,9.8-5.2,14.7c-1.7,4.9-3.5,9.8-5.2,14.7s-3.5,9.8-5.2,14.8
						c-1.7,4.9-3.5,9.9-5.2,14.8l-63.9-32.9c1.9-5.3,3.8-10.6,5.7-16s3.8-10.6,5.7-15.9s3.8-10.6,5.7-15.9
						C171.1,544.9,173,539.6,174.9,534.3"/>
				</g>
			</g>
		</g>
		<g class="st2">
			<g>
				<path id="SVGID_00000149369572678693105990000000346658360598537123_" class="st5" d="M152.2,597.9l63.9,32.9c-2,0.5-4,1-6,1.5
					c-2,0.5-4,1-6,1.5c-2,0.5-4,1-6,1.5c-2,0.5-4,1-6,1.5l-65.6-32.3c2.1-0.5,4.3-1.1,6.4-1.6s4.3-1.1,6.4-1.6
					c2.1-0.5,4.3-1.1,6.4-1.6C147.9,599,150.1,598.5,152.2,597.9z"/>
			</g>
			<g>
				<defs>
					<path id="SVGID_00000116939976393421808650000012743262643814374534_" d="M152.2,597.9l63.9,32.9c-2,0.5-4,1-6,1.5
						c-2,0.5-4,1-6,1.5c-2,0.5-4,1-6,1.5c-2,0.5-4,1-6,1.5l-65.6-32.3c2.1-0.5,4.3-1.1,6.4-1.6s4.3-1.1,6.4-1.6
						c2.1-0.5,4.3-1.1,6.4-1.6C147.9,599,150.1,598.5,152.2,597.9z"/>
				</defs>
				<clipPath id="SVGID_00000176023050827024728520000002184410093967416236_">
					<use xlink:href="#SVGID_00000116939976393421808650000012743262643814374534_"  style="overflow:visible;"/>
				</clipPath>
				<g style="clip-path:url(#SVGID_00000176023050827024728520000002184410093967416236_);enable-background:new    ;">
					<path class="st5" d="M152.2,597.9l63.9,32.9c-2,0.5-4,1-6,1.5c-2,0.5-4,1-6,1.5c-2,0.5-4,1-6,1.5c-2,0.5-4,1-6,1.5l-65.6-32.3
						c2.1-0.5,4.3-1.1,6.4-1.6s4.3-1.1,6.4-1.6c2.1-0.5,4.3-1.1,6.4-1.6C147.9,599,150.1,598.5,152.2,597.9"/>
				</g>
			</g>
		</g>
		<g class="st2">
			<g>
				<path id="SVGID_00000132062553484815647140000010806014717941497012_" class="st3" d="M243.8,490.7l57.1,40.9
					c-0.9,2.6-1.7,4.9-2.4,7s-1.4,4.1-2.1,6c-0.7,2-1.4,3.9-2.1,6s-1.5,4.4-2.5,7l-58-38.9c1-2.8,1.9-5.3,2.7-7.6s1.6-4.4,2.3-6.5
					c0.8-2.1,1.5-4.2,2.3-6.5C241.9,496,242.8,493.5,243.8,490.7z"/>
			</g>
			<g>
				<defs>
					<path id="SVGID_00000064323138539592455170000009447530092602517939_" d="M243.8,490.7l57.1,40.9c-0.9,2.6-1.7,4.9-2.4,7
						s-1.4,4.1-2.1,6c-0.7,2-1.4,3.9-2.1,6s-1.5,4.4-2.5,7l-58-38.9c1-2.8,1.9-5.3,2.7-7.6s1.6-4.4,2.3-6.5c0.8-2.1,1.5-4.2,2.3-6.5
						C241.9,496,242.8,493.5,243.8,490.7z"/>
				</defs>
				<clipPath id="SVGID_00000089554410789836031760000001000005256211098505_">
					<use xlink:href="#SVGID_00000064323138539592455170000009447530092602517939_"  style="overflow:visible;"/>
				</clipPath>
				<g style="clip-path:url(#SVGID_00000089554410789836031760000001000005256211098505_);enable-background:new    ;">
					<path class="st3" d="M243.8,490.7l57.1,40.9c-0.9,2.6-1.7,4.9-2.4,7s-1.4,4.1-2.1,6c-0.7,2-1.4,3.9-2.1,6s-1.5,4.4-2.5,7
						l-58-38.9c1-2.8,1.9-5.3,2.7-7.6s1.6-4.4,2.3-6.5c0.8-2.1,1.5-4.2,2.3-6.5C241.9,496,242.8,493.5,243.8,490.7"/>
				</g>
			</g>
		</g>
		<g class="st2">
			<g>
				<path id="SVGID_00000026128680126119929520000014805225140006426787_" class="st5" d="M233.8,518.9l58,38.9
					c-4.6,1.2-9.2,2.3-13.8,3.5c-4.6,1.2-9.2,2.3-13.8,3.5c-4.6,1.2-9.1,2.3-13.7,3.5c-4.6,1.2-9.1,2.3-13.7,3.5l-62-37.5
					c4.9-1.3,9.8-2.6,14.6-3.9c4.9-1.3,9.8-2.6,14.7-3.9c4.9-1.3,9.8-2.6,14.8-3.8C223.9,521.5,228.9,520.2,233.8,518.9z"/>
			</g>
			<g>
				<defs>
					<path id="SVGID_00000176015796613925526280000018404286413080497580_" d="M233.8,518.9l58,38.9c-4.6,1.2-9.2,2.3-13.8,3.5
						c-4.6,1.2-9.2,2.3-13.8,3.5c-4.6,1.2-9.1,2.3-13.7,3.5c-4.6,1.2-9.1,2.3-13.7,3.5l-62-37.5c4.9-1.3,9.8-2.6,14.6-3.9
						c4.9-1.3,9.8-2.6,14.7-3.9c4.9-1.3,9.8-2.6,14.8-3.8C223.9,521.5,228.9,520.2,233.8,518.9z"/>
				</defs>
				<clipPath id="SVGID_00000103237883836701443000000006175610706009611653_">
					<use xlink:href="#SVGID_00000176015796613925526280000018404286413080497580_"  style="overflow:visible;"/>
				</clipPath>
				<g style="clip-path:url(#SVGID_00000103237883836701443000000006175610706009611653_);enable-background:new    ;">
					<path class="st5" d="M233.8,518.9l58,38.9c-4.6,1.2-9.2,2.3-13.8,3.5c-4.6,1.2-9.2,2.3-13.8,3.5c-4.6,1.2-9.1,2.3-13.7,3.5
						c-4.6,1.2-9.1,2.3-13.7,3.5l-62-37.5c4.9-1.3,9.8-2.6,14.6-3.9c4.9-1.3,9.8-2.6,14.7-3.9c4.9-1.3,9.8-2.6,14.8-3.8
						C223.9,521.5,228.9,520.2,233.8,518.9"/>
				</g>
			</g>
		</g>
		<g>
			<path class="st12" d="M266.7,429c-1,2.8-1.9,5.2-2.6,7.5s-1.5,4.4-2.3,6.5c-0.7,2.1-1.5,4.2-2.3,6.5c-0.8,2.3-1.7,4.7-2.7,7.5
				c-5.1,1.4-10.1,2.8-15.2,4.2c-5.1,1.4-10.1,2.8-15.1,4.2c-5,1.4-10,2.8-15.1,4.2c-5,1.4-10,2.8-15,4.2c-1,2.7-1.9,5.5-2.9,8.2
				c-1,2.7-1.9,5.5-2.9,8.2c-1,2.7-1.9,5.5-2.9,8.2s-2,5.5-2.9,8.2c4.9-1.3,9.8-2.7,14.7-4c4.9-1.3,9.8-2.6,14.7-4s9.8-2.6,14.8-4
				c4.9-1.3,9.9-2.6,14.8-3.9c-1,2.8-1.9,5.3-2.7,7.6s-1.6,4.4-2.3,6.5c-0.8,2.1-1.5,4.2-2.3,6.5c-0.8,2.3-1.7,4.8-2.7,7.6
				c-4.9,1.3-9.9,2.5-14.8,3.8c-4.9,1.3-9.9,2.6-14.8,3.8c-4.9,1.3-9.8,2.6-14.7,3.9s-9.8,2.6-14.6,3.9c-1.9,5.3-3.8,10.6-5.7,15.8
				c-1.9,5.3-3.8,10.6-5.7,15.9s-3.8,10.6-5.7,15.9c-1.9,5.3-3.8,10.6-5.7,16c-2.1,0.5-4.3,1.1-6.4,1.6s-4.3,1.1-6.4,1.6
				c-2.1,0.5-4.3,1.1-6.4,1.6c-2.1,0.5-4.3,1.1-6.4,1.6c4.5-12.7,9.1-25.3,13.6-38c4.5-12.6,9-25.2,13.5-37.8
				c4.5-12.5,9-25.1,13.5-37.6c4.5-12.5,8.9-24.9,13.4-37.4c7.1-2.1,14.2-4.2,21.4-6.2c7.1-2.1,14.3-4.1,21.5-6.2
				c7.2-2.1,14.4-4.1,21.6-6.2C252.2,433.1,259.5,431.1,266.7,429z"/>
		</g>
	</g>
	<path class="st3" d="M364.6,418l48,46.9c0.2,0.3,0.4,0.7,0.6,1c0.2,0.3,0.4,0.7,0.5,1s0.4,0.7,0.5,1.1c0.2,0.4,0.3,0.7,0.5,1.1
		l-47.8-46.6c-0.2-0.4-0.3-0.8-0.5-1.2c-0.2-0.4-0.4-0.8-0.5-1.2s-0.4-0.8-0.6-1.1C365,418.7,364.8,418.4,364.6,418"/>
	<g>
		<path class="st5" d="M346.1,439.5l50.1,45.2c-0.7-0.6-1.4-1.1-2.2-1.6s-1.6-0.8-2.5-1.1c-0.9-0.3-1.9-0.5-2.9-0.6
			s-2.1-0.1-3.3-0.1c-0.4,0-0.8,0.1-1.2,0.1s-0.8,0.1-1.3,0.2c-0.4,0.1-0.9,0.2-1.3,0.3s-0.9,0.2-1.4,0.3c-5.5,1.5-10.9,4.2-16,7.7
			s-10,8-14.4,13.1c-4.5,5.1-8.5,10.7-12,16.7c-3.5,6-6.5,12.3-8.8,18.6c-1.4,3.8-2.4,7.7-3,11.5c-0.6,3.8-0.8,7.5-0.5,10.9
			s1,6.6,2.2,9.2c1.2,2.7,2.9,4.9,5.2,6.4l-55.4-37.7c-2.4-1.6-4.2-4-5.5-6.8c-1.3-2.9-2-6.2-2.3-9.9c-0.3-3.7-0.1-7.7,0.6-11.8
			c0.7-4.1,1.8-8.3,3.3-12.4c2.5-6.8,5.8-13.6,9.6-20.1c3.8-6.5,8.2-12.6,13-18.1s10-10.3,15.6-14.2c5.5-3.9,11.3-6.8,17.2-8.4
			c0.5-0.1,1-0.3,1.5-0.4c0.5-0.1,0.9-0.2,1.4-0.3c0.5-0.1,0.9-0.1,1.4-0.2s0.9-0.1,1.3-0.1c1.2-0.1,2.4-0.1,3.5,0s2.1,0.3,3.1,0.6
			c1,0.3,1.9,0.7,2.7,1.2C344.6,438.2,345.4,438.8,346.1,439.5z"/>
		<path class="st3" d="M377.9,422.6l47.8,46.6c0.8,2,1.5,4,2,6.2s0.9,4.5,1.1,6.9c0.2,2.4,0.3,4.9,0.3,7.5c0,2.6-0.2,5.2-0.6,8
			l-47.8-44.4c0.4-2.9,0.6-5.8,0.7-8.6s0-5.5-0.2-8.1c-0.2-2.6-0.6-5.1-1.2-7.5C379.4,426.9,378.7,424.7,377.9,422.6"/>
		<path class="st3" d="M380.7,453.3l47.8,44.4c-0.1,0.9-0.2,1.8-0.4,2.7c-0.1,0.9-0.3,1.8-0.5,2.8c-0.2,0.9-0.4,1.9-0.5,2.8
			c-0.2,0.9-0.4,1.9-0.6,2.8l-48-43.5c0.2-1,0.5-2,0.7-3s0.4-2,0.6-3c0.2-1,0.4-2,0.5-3C380.4,455.3,380.6,454.3,380.7,453.3"/>
		<path class="st3" d="M378.4,465.3l48,43.5c-0.1,0.5-0.3,1.1-0.4,1.6c-0.1,0.5-0.3,1.1-0.5,1.7c-0.1,0.5-0.3,1.1-0.5,1.7
			s-0.3,1.1-0.5,1.7c-0.1,0.3-0.2,0.6-0.3,1c-0.1,0.3-0.2,0.6-0.3,1s-0.2,0.6-0.3,1c-0.1,0.3-0.2,0.6-0.3,1L375,476.5
			c0.1-0.3,0.2-0.7,0.4-1s0.2-0.7,0.4-1c0.1-0.3,0.2-0.7,0.4-1c0.1-0.4,0.2-0.7,0.3-1c0.2-0.6,0.4-1.2,0.6-1.8
			c0.2-0.6,0.4-1.2,0.5-1.8c0.2-0.6,0.3-1.2,0.5-1.8C378.1,466.5,378.3,465.9,378.4,465.3"/>
		<path class="st3" d="M375,476.5l48.3,42.7c-0.3,1-0.7,1.9-1,2.9s-0.7,1.9-1.1,2.9c-0.4,1-0.8,1.9-1.2,2.8c-0.4,1-0.8,1.9-1.2,2.8
			L370,488.9c0.5-1,0.9-2,1.4-3.1c0.4-1,0.9-2,1.3-3.1s0.8-2.1,1.2-3.1C374.3,478.6,374.6,477.6,375,476.5"/>
		<path class="st3" d="M370,488.9l48.8,41.8c-0.4,1-0.9,1.9-1.4,2.9s-0.9,1.9-1.4,2.9s-1,1.9-1.5,2.8c-0.5,0.9-1,1.9-1.5,2.8
			l-49.3-40.9c0.6-1,1.1-2,1.7-3c0.5-1,1.1-2,1.6-3.1c0.5-1,1-2.1,1.5-3.1S369.5,489.9,370,488.9"/>
		<path class="st3" d="M363.7,501.2l49.3,40.9c-0.5,1-1.1,2-1.7,3c-0.6,1-1.2,2-1.8,2.9s-1.2,1.9-1.8,2.9c-0.6,1-1.2,1.9-1.9,2.8
			l-49.9-40c0.7-1,1.4-2,2-3.1c0.7-1,1.3-2.1,2-3.1c0.6-1,1.3-2.1,1.9-3.1C362.5,503.4,363.1,502.3,363.7,501.2"/>
		<path class="st3" d="M356,513.8l49.9,40c-0.7,1-1.4,2-2.1,3s-1.5,2-2.2,3s-1.5,2-2.2,2.9c-0.8,1-1.5,1.9-2.3,2.8l-50.6-39
			c0.8-1,1.7-2,2.5-3.1c0.8-1,1.6-2.1,2.4-3.2s1.6-2.1,2.4-3.2C354.4,516,355.2,514.9,356,513.8"/>
		<path class="st3" d="M346.4,526.5l50.6,39c-0.9,1-1.8,2.1-2.6,3.1c-0.9,1-1.8,2-2.7,3s-1.9,2-2.8,2.9c-0.9,1-1.9,1.9-2.9,2.8
			l-51.5-38c1-1,2.1-2,3.1-3.1s2-2.1,3-3.2c1-1.1,2-2.2,2.9-3.3C344.5,528.8,345.4,527.6,346.4,526.5"/>
		<path class="st3" d="M334.5,539.3l51.5,38c-1.1,1.1-2.3,2.2-3.5,3.2s-2.4,2.1-3.6,3.1c-1.2,1-2.4,2-3.6,2.9s-2.5,1.9-3.7,2.8
			l-52.6-37c1.3-1,2.7-2,4-3c1.3-1,2.6-2.1,3.9-3.2s2.6-2.2,3.8-3.4C332,541.7,333.2,540.5,334.5,539.3"/>
		<path class="st5" d="M319,552.4l52.6,37c-2.7,2-5.5,3.8-8.2,5.4c-2.8,1.7-5.6,3.2-8.4,4.5s-5.7,2.5-8.6,3.6
			c-2.9,1-5.8,1.9-8.7,2.5c-0.8,0.2-1.5,0.3-2.3,0.5c-0.8,0.1-1.5,0.3-2.2,0.4c-0.7,0.1-1.4,0.2-2.1,0.2c-0.7,0.1-1.4,0.1-2.1,0.1
			c-1.7,0.1-3.2,0-4.8-0.1c-1.5-0.1-3-0.4-4.3-0.7c-1.4-0.3-2.7-0.8-3.9-1.3c-1.2-0.5-2.4-1.1-3.5-1.8l-57-35.6
			c1.2,0.7,2.4,1.4,3.7,1.9c1.3,0.5,2.7,1,4.2,1.3s3,0.6,4.6,0.7c1.6,0.1,3.3,0.2,5.1,0.1c0.7,0,1.5-0.1,2.2-0.2
			c0.8-0.1,1.5-0.2,2.3-0.3c0.8-0.1,1.6-0.2,2.4-0.4s1.6-0.3,2.5-0.5c3.1-0.7,6.2-1.7,9.3-2.8s6.2-2.4,9.2-3.9
			c3.1-1.5,6.1-3.1,9.1-5C313.1,556.5,316,554.6,319,552.4"/>
		<g>
			<path class="st12" d="M349.7,405.4c7.6-0.6,13.8,1.1,18.6,4.5c4.8,3.4,8.3,8.5,10.4,14.9c2.1,6.3,3,13.8,2.6,21.9
				c-0.4,8.1-2,16.9-4.9,25.7c-3.7,11.5-8.9,22.8-15.3,33.3c-6.4,10.6-14,20.5-22.3,29.2s-17.5,16.3-27,22.3
				c-9.5,6-19.4,10.4-29.4,12.7c-0.8,0.2-1.6,0.4-2.5,0.5c-0.8,0.2-1.6,0.3-2.4,0.4c-0.8,0.1-1.5,0.2-2.3,0.3
				c-0.8,0.1-1.5,0.1-2.2,0.2c-7.7,0.4-14-1.4-18.8-4.8c-4.8-3.4-8.3-8.5-10.4-14.7c-2.1-6.2-2.9-13.6-2.4-21.6
				c0.5-8,2.2-16.7,5.1-25.6c3.7-11.3,8.9-22.3,15.3-32.6c6.4-10.3,13.9-20,22.1-28.6c8.2-8.6,17.2-16.2,26.5-22.3
				c9.3-6.1,19-10.8,28.7-13.6c0.9-0.3,1.9-0.5,2.8-0.8c0.9-0.2,1.8-0.4,2.7-0.6c0.9-0.2,1.7-0.3,2.6-0.4
				C348,405.6,348.9,405.5,349.7,405.4z M348.9,479c1.8-5.2,3-10.6,3.5-15.8c0.5-5.1,0.2-10-0.9-14.2c-1.1-4.2-3-7.6-5.8-10
				s-6.5-3.5-11.2-3.2c-0.4,0-0.9,0.1-1.3,0.1s-0.9,0.1-1.4,0.2c-0.5,0.1-0.9,0.2-1.4,0.3c-0.5,0.1-1,0.2-1.5,0.4
				c-5.9,1.6-11.7,4.6-17.2,8.4c-5.5,3.9-10.8,8.7-15.6,14.2c-4.8,5.5-9.2,11.6-13,18.1c-3.8,6.5-7.1,13.3-9.6,20.1
				c-1.9,5.2-3.2,10.5-3.7,15.6c-0.5,5.1-0.3,10,0.7,14.2c1,4.2,2.9,7.7,5.6,10.1c2.8,2.4,6.4,3.7,11.1,3.4c0.4,0,0.9-0.1,1.3-0.1
				s0.9-0.1,1.4-0.2s1-0.2,1.5-0.3c0.5-0.1,1-0.2,1.5-0.4c6-1.6,11.9-4.5,17.5-8.4c5.6-3.8,11-8.7,15.8-14.2
				c4.9-5.5,9.3-11.6,13.2-18.1C343.3,492.8,346.5,485.9,348.9,479"/>
		</g>
	</g>
	<path class="st13" d="M399.4,504.5l46,41c0.1,0.1,0.2,0.2,0.3,0.3c0.1,0.1,0.2,0.2,0.3,0.3c0.1,0.1,0.2,0.2,0.3,0.3
		c0.1,0.1,0.2,0.2,0.3,0.3l-46-40.9c-0.1-0.1-0.2-0.2-0.3-0.3c-0.1-0.1-0.2-0.2-0.3-0.4s-0.2-0.2-0.3-0.4S399.5,504.6,399.4,504.5"
		/>
	<path class="st13" d="M400.6,505.9l46,40.9c0.1,0.1,0.1,0.1,0.2,0.2s0.1,0.1,0.2,0.2c0.1,0.1,0.1,0.1,0.2,0.2s0.1,0.1,0.2,0.2
		l-45.9-40.8c-0.1-0.1-0.1-0.1-0.2-0.2c-0.1-0.1-0.1-0.1-0.2-0.2s-0.1-0.1-0.2-0.2C400.7,506,400.7,506,400.6,505.9"/>
	<path class="st13" d="M500.9,380.8l38.3,50.5c0.1,0.2,0.2,0.3,0.4,0.5s0.2,0.3,0.4,0.5s0.2,0.3,0.3,0.5c0.1,0.2,0.2,0.4,0.3,0.5
		L502.4,383c-0.1-0.2-0.2-0.4-0.4-0.6c-0.1-0.2-0.2-0.4-0.4-0.5c-0.1-0.2-0.2-0.4-0.4-0.5C501.1,381.2,501,381,500.9,380.8"/>
	<path class="st13" d="M502.4,383l38.2,50.3c0.2,0.3,0.4,0.7,0.6,1s0.4,0.7,0.6,1s0.4,0.7,0.5,1.1c0.2,0.4,0.3,0.7,0.5,1.1l-38-50
		c-0.2-0.4-0.4-0.8-0.5-1.2s-0.4-0.8-0.6-1.1c-0.2-0.4-0.4-0.8-0.6-1.1C502.8,383.7,502.6,383.4,502.4,383"/>
	<g>
		<path class="st14" d="M488.1,407.2l40.3,48.4c-0.7-0.9-1.6-1.7-2.5-2.4s-1.9-1.2-3-1.7c-1.1-0.5-2.3-0.8-3.5-1
			c-1.3-0.2-2.6-0.2-4.1-0.1c-0.4,0-0.7,0.1-1.1,0.1s-0.8,0.1-1.2,0.2s-0.8,0.1-1.2,0.2c-0.4,0.1-0.8,0.2-1.2,0.3
			c-5.8,1.4-11.3,4.1-16.6,7.7c-5.3,3.6-10.2,8.2-14.8,13.4s-8.6,11-12.2,17.1c-3.5,6.1-6.5,12.6-8.8,19c-1.3,3.6-2.3,7.4-2.9,11.2
			c-0.6,3.8-0.8,7.5-0.6,11c0.2,3.5,0.8,6.8,1.9,9.7c1.1,2.9,2.6,5.3,4.7,7.1c-15.3-13.6-30.6-27.2-45.9-40.8c-2.2-2-3.8-4.6-5-7.7
			c-1.1-3.1-1.8-6.6-2-10.4c-0.2-3.8,0.1-7.8,0.8-11.9c0.7-4.1,1.7-8.1,3.1-12.1c2.5-6.9,5.7-13.9,9.6-20.5
			c3.9-6.6,8.3-12.9,13.2-18.6s10.3-10.6,16-14.5c5.7-4,11.7-6.9,17.9-8.5c0.5-0.1,0.9-0.2,1.3-0.3s0.9-0.2,1.3-0.2
			c0.4-0.1,0.8-0.1,1.2-0.2s0.8-0.1,1.2-0.1c1.6-0.1,3-0.1,4.4,0.1s2.6,0.5,3.8,1c1.2,0.5,2.2,1.1,3.2,1.8
			C486.5,405.4,487.3,406.2,488.1,407.2z"/>
		<path class="st3" d="M518.8,387.6l38,50c0.9,2.1,1.7,4.4,2.3,6.7c0.6,2.4,1.1,4.9,1.3,7.5s0.4,5.3,0.4,8.1c0,2.8-0.2,5.6-0.5,8.5
			l-37.9-47.7c0.3-3.1,0.5-6.2,0.6-9.2s-0.1-5.9-0.4-8.7c-0.3-2.8-0.8-5.5-1.4-8.1C520.6,392.2,519.8,389.8,518.8,387.6"/>
		<path class="st3" d="M522.5,420.8l37.9,47.7c-0.1,1-0.2,2-0.4,2.9c-0.1,1-0.3,2-0.5,3c-0.2,1-0.4,2-0.6,3c-0.2,1-0.4,2-0.7,3
			l-38.1-46.8c0.3-1.1,0.5-2.1,0.7-3.2s0.4-2.1,0.6-3.2c0.2-1.1,0.4-2.1,0.5-3.2C522.2,422.9,522.4,421.8,522.5,420.8"/>
		<path class="st3" d="M520.3,433.6l38.1,46.8c-0.1,0.6-0.3,1.2-0.4,1.7c-0.2,0.6-0.3,1.2-0.5,1.7c-0.2,0.6-0.3,1.2-0.5,1.7
			s-0.3,1.2-0.5,1.7c-0.1,0.3-0.2,0.7-0.3,1c-0.1,0.3-0.2,0.7-0.3,1s-0.2,0.7-0.3,1c-0.1,0.3-0.2,0.7-0.3,1l-38.4-45.9
			c0.1-0.4,0.2-0.7,0.4-1.1c0.1-0.4,0.2-0.7,0.4-1.1c0.1-0.4,0.2-0.7,0.3-1.1c0.1-0.4,0.2-0.7,0.3-1.1c0.2-0.6,0.4-1.2,0.6-1.9
			c0.2-0.6,0.4-1.2,0.5-1.9c0.2-0.6,0.3-1.2,0.5-1.9C520,434.8,520.1,434.2,520.3,433.6"/>
		<path class="st3" d="M516.8,445.4l38.4,45.9c-0.3,1-0.7,2-1.1,3s-0.8,2-1.1,3c-0.4,1-0.8,2-1.2,3c-0.4,1-0.8,2-1.3,3l-38.9-44.9
			c0.5-1.1,0.9-2.1,1.4-3.2c0.5-1.1,0.9-2.1,1.3-3.2s0.8-2.2,1.2-3.2C516,447.5,516.4,446.5,516.8,445.4"/>
		<path class="st3" d="M511.7,458.3l38.9,44.9c-0.5,1-0.9,2-1.4,3c-0.5,1-1,2-1.5,3s-1,2-1.5,3c-0.5,1-1,2-1.6,2.9l-39.4-43.9
			c0.6-1,1.2-2.1,1.7-3.2c0.6-1.1,1.1-2.1,1.7-3.2c0.5-1.1,1.1-2.1,1.6-3.2C510.7,460.5,511.2,459.4,511.7,458.3"/>
		<path class="st3" d="M505.2,471.1l39.4,43.9c-0.6,1-1.2,2-1.7,3c-0.6,1-1.2,2-1.8,3s-1.2,2-1.9,3s-1.3,2-2,2.9l-40-42.9
			c0.7-1,1.4-2.1,2.1-3.2c0.7-1.1,1.4-2.1,2-3.2s1.3-2.2,2-3.3C503.9,473.4,504.6,472.3,505.2,471.1"/>
		<path class="st3" d="M497.2,484.1l40,42.9c-0.7,1-1.4,2.1-2.2,3.1s-1.5,2-2.2,3c-0.8,1-1.5,2-2.3,3c-0.8,1-1.6,2-2.4,2.9
			l-40.8-41.9c0.9-1,1.7-2.1,2.6-3.1s1.7-2.1,2.5-3.2c0.8-1.1,1.6-2.2,2.4-3.3C495.6,486.4,496.4,485.2,497.2,484.1"/>
		<path class="st3" d="M487.4,497.1l40.8,41.9c-0.9,1-1.8,2.1-2.7,3.1c-0.9,1-1.8,2-2.7,3c-0.9,1-1.9,2-2.8,2.9
			c-1,1-1.9,1.9-2.9,2.8l-41.7-40.9c1-1,2.1-2,3.1-3.1c1-1,2-2.1,3-3.2c1-1.1,2-2.2,3-3.3C485.5,499.4,486.4,498.3,487.4,497.1"/>
		<path class="st3" d="M475.4,510.1l41.7,40.9c-1.1,1.1-2.3,2.2-3.5,3.2c-1.2,1-2.3,2.1-3.5,3.1c-1.2,1-2.4,2-3.6,2.9
			c-1.2,0.9-2.4,1.9-3.7,2.8L460,523c1.3-1,2.7-2,4-3c1.3-1,2.6-2.1,3.9-3.2c1.3-1.1,2.6-2.2,3.8-3.3
			C472.9,512.4,474.1,511.2,475.4,510.1"/>
		<path class="st5" d="M460,523l42.9,39.9c-2.8,2-5.6,3.8-8.5,5.5s-5.8,3.2-8.7,4.6c-2.9,1.4-5.9,2.5-8.9,3.6s-6,1.8-9,2.5
			c-0.7,0.1-1.4,0.3-2,0.4s-1.3,0.2-2,0.3c-0.6,0.1-1.3,0.2-1.9,0.2c-0.6,0.1-1.3,0.1-1.9,0.1c-2.1,0.1-4.1,0-6-0.2
			c-1.9-0.2-3.7-0.6-5.3-1.1c-1.7-0.5-3.2-1.1-4.7-1.9c-1.5-0.8-2.8-1.7-4-2.7l-47.7-38.6c1.3,1.1,2.8,2,4.3,2.8
			c1.6,0.8,3.2,1.5,5,2s3.7,0.9,5.7,1.1c2,0.2,4.2,0.3,6.4,0.2c0.7,0,1.3-0.1,2-0.2c0.7-0.1,1.4-0.2,2.1-0.2
			c0.7-0.1,1.4-0.2,2.1-0.3c0.7-0.1,1.5-0.3,2.2-0.4c3.2-0.7,6.5-1.6,9.7-2.7c3.2-1.1,6.4-2.4,9.6-3.9c3.2-1.5,6.3-3.2,9.4-5
			C453.9,527.2,457,525.2,460,523"/>
		<g>
			<path class="st12" d="M489.1,370.3c8.3-0.7,14.9,1.2,20.1,4.9c5.2,3.7,8.8,9.3,11.1,16c2.3,6.8,3.2,14.8,2.8,23.3
				c-0.4,8.5-2,17.6-4.8,26.5c-3.6,11.7-8.9,23.2-15.3,34c-6.4,10.9-14.1,21-22.6,30c-8.5,9-17.9,16.8-27.7,22.9
				c-9.8,6.1-20.1,10.5-30.5,12.7c-0.7,0.2-1.5,0.3-2.2,0.4s-1.4,0.2-2.1,0.3c-0.7,0.1-1.4,0.2-2.1,0.2c-0.7,0.1-1.4,0.1-2,0.2
				c-8.4,0.5-15.2-1.5-20.4-5.2c-5.2-3.7-8.8-9.2-11.1-15.9c-2.2-6.7-3.1-14.5-2.6-23c0.5-8.4,2.2-17.5,5.1-26.5
				c3.7-11.4,8.9-22.7,15.3-33.2s14-20.5,22.4-29.3c8.4-8.8,17.6-16.6,27.2-22.8c9.6-6.2,19.7-11,29.8-13.7c0.9-0.2,1.7-0.5,2.6-0.6
				s1.7-0.4,2.5-0.5c0.8-0.1,1.6-0.3,2.4-0.4C487.6,370.5,488.4,370.4,489.1,370.3z M489.9,447.2c1.8-5.3,3-10.9,3.5-16.3
				c0.5-5.4,0.1-10.5-1-15c-1.2-4.5-3.2-8.2-6.2-10.7c-3-2.5-7-3.9-12.1-3.5c-0.4,0-0.8,0.1-1.2,0.1s-0.8,0.1-1.2,0.2
				c-0.4,0.1-0.9,0.1-1.3,0.2s-0.9,0.2-1.3,0.3c-6.2,1.6-12.2,4.5-17.9,8.5c-5.7,4-11.1,8.9-16,14.5c-4.9,5.6-9.4,11.9-13.2,18.6
				c-3.9,6.6-7.1,13.6-9.6,20.5c-1.9,5.2-3.1,10.8-3.7,16.1c-0.5,5.4-0.3,10.5,0.8,15c1.1,4.5,3,8.3,6,10.9c3,2.6,6.9,4,12,3.7
				c0.4,0,0.8-0.1,1.2-0.1s0.9-0.1,1.3-0.2s0.9-0.1,1.3-0.2c0.5-0.1,0.9-0.2,1.4-0.3c6.3-1.6,12.4-4.5,18.2-8.4
				c5.8-3.9,11.3-8.9,16.2-14.5c5-5.6,9.5-12,13.4-18.6C484.3,461.4,487.5,454.3,489.9,447.2"/>
		</g>
	</g>
	<path class="st15" d="M584.8,375.2l32.2,51.5c-2.2,0.5-4.1,0.9-5.9,1.2s-3.4,0.7-5.1,1.1c-1.7,0.4-3.3,0.7-5.1,1.1
		c-1.8,0.4-3.7,0.8-5.9,1.3l-34-51c2.4-0.5,4.5-1,6.4-1.4c1.9-0.4,3.7-0.8,5.5-1.2c1.8-0.4,3.6-0.8,5.5-1.2
		C580.3,376.2,582.4,375.8,584.8,375.2z"/>
	<path class="st15" d="M637.3,358.5l28.3,53.1c0.1,0.1,0.2,0.3,0.2,0.4c0.1,0.1,0.1,0.3,0.2,0.4s0.1,0.3,0.2,0.4s0.1,0.3,0.2,0.4
		l-28.2-53c-0.1-0.1-0.1-0.3-0.2-0.5c-0.1-0.1-0.2-0.3-0.2-0.5s-0.2-0.3-0.2-0.5C637.4,358.8,637.3,358.7,637.3,358.5"/>
	<g>
		<path class="st5" d="M595.8,375.2l32.2,51.5c-2.2,0.5-4.1,0.9-5.9,1.2s-3.4,0.7-5.1,1.1c-1.7,0.4-3.3,0.7-5.1,1.1
			c-1.8,0.4-3.7,0.8-5.9,1.3l-34-51c2.4-0.5,4.5-1,6.4-1.4c1.9-0.4,3.7-0.8,5.5-1.2c1.8-0.4,3.6-0.8,5.5-1.2
			C591.3,376.2,593.4,375.8,595.8,375.2"/>
		<g class="st2">
			<g>
				<path id="SVGID_00000128465105876642570110000012070722606442780821_" class="st3" d="M572,380.5l34,51
					c-2.6,8-5.3,16.1-7.9,24.1c-2.7,8-5.3,16.1-8,24.2c-2.7,8.1-5.3,16.2-8,24.3c-2.7,8.1-5.3,16.2-8,24.4l-36.9-43.1
					c2.9-8.8,5.8-17.6,8.8-26.3c2.9-8.8,5.8-17.5,8.7-26.2c2.9-8.7,5.8-17.4,8.7-26.1C566.2,397.8,569.1,389.1,572,380.5z"/>
			</g>
			<g>
				<defs>
					<path id="SVGID_00000048495381161544182270000016072988007412292498_" d="M572,380.5l34,51c-2.6,8-5.3,16.1-7.9,24.1
						c-2.7,8-5.3,16.1-8,24.2c-2.7,8.1-5.3,16.2-8,24.3c-2.7,8.1-5.3,16.2-8,24.4l-36.9-43.1c2.9-8.8,5.8-17.6,8.8-26.3
						c2.9-8.8,5.8-17.5,8.7-26.2c2.9-8.7,5.8-17.4,8.7-26.1C566.2,397.8,569.1,389.1,572,380.5z"/>
				</defs>
				<clipPath id="SVGID_00000015352909287898866400000013409735600588954024_">
					<use xlink:href="#SVGID_00000048495381161544182270000016072988007412292498_"  style="overflow:visible;"/>
				</clipPath>
				<g style="clip-path:url(#SVGID_00000015352909287898866400000013409735600588954024_);enable-background:new    ;">
					<path class="st3" d="M572,380.5l34,51c-2.6,8-5.3,16.1-7.9,24.1c-2.7,8-5.3,16.1-8,24.2c-2.7,8.1-5.3,16.2-8,24.3
						c-2.7,8.1-5.3,16.2-8,24.4l-36.9-43.1c2.9-8.8,5.8-17.6,8.8-26.3c2.9-8.8,5.8-17.5,8.7-26.2c2.9-8.7,5.8-17.4,8.7-26.1
						C566.2,397.8,569.1,389.1,572,380.5"/>
				</g>
			</g>
		</g>
		<g class="st2">
			<g>
				<path id="SVGID_00000085969572718107792730000010989792536132313754_" class="st5" d="M619.3,382.6c10.2,17,20.3,34.1,30.5,51.1
					c-0.8-1.3-1.7-2.5-2.8-3.5c-1.1-1-2.3-1.9-3.6-2.6s-2.8-1.2-4.5-1.5s-3.4-0.4-5.4-0.3c-0.4,0-0.9,0.1-1.3,0.1s-0.9,0.1-1.4,0.2
					c-0.5,0.1-0.9,0.2-1.4,0.3c-0.5,0.1-1,0.2-1.5,0.3l-32.2-51.5c0.5-0.1,1.1-0.3,1.6-0.4c0.5-0.1,1-0.2,1.5-0.3s1-0.2,1.5-0.2
					c0.5-0.1,1-0.1,1.4-0.1c2.1-0.2,4-0.1,5.8,0.2s3.4,0.8,4.8,1.6c1.5,0.7,2.8,1.7,3.9,2.8C617.5,379.9,618.5,381.1,619.3,382.6z"
					/>
			</g>
			<g>
				<defs>
					<path id="SVGID_00000155850214416845419480000004250046640154314394_" d="M619.3,382.6c10.2,17,20.3,34.1,30.5,51.1
						c-0.8-1.3-1.7-2.5-2.8-3.5c-1.1-1-2.3-1.9-3.6-2.6s-2.8-1.2-4.5-1.5s-3.4-0.4-5.4-0.3c-0.4,0-0.9,0.1-1.3,0.1s-0.9,0.1-1.4,0.2
						c-0.5,0.1-0.9,0.2-1.4,0.3c-0.5,0.1-1,0.2-1.5,0.3l-32.2-51.5c0.5-0.1,1.1-0.3,1.6-0.4c0.5-0.1,1-0.2,1.5-0.3s1-0.2,1.5-0.2
						c0.5-0.1,1-0.1,1.4-0.1c2.1-0.2,4-0.1,5.8,0.2s3.4,0.8,4.8,1.6c1.5,0.7,2.8,1.7,3.9,2.8C617.5,379.9,618.5,381.1,619.3,382.6z"
						/>
				</defs>
				<clipPath id="SVGID_00000058574402607643685700000008832298333688035715_">
					<use xlink:href="#SVGID_00000155850214416845419480000004250046640154314394_"  style="overflow:visible;"/>
				</clipPath>
				<g style="clip-path:url(#SVGID_00000058574402607643685700000008832298333688035715_);enable-background:new    ;">
					<path class="st5" d="M619.3,382.6l30.5,51.1c-0.8-1.3-1.7-2.5-2.8-3.5c-1.1-1-2.3-1.9-3.6-2.6s-2.8-1.2-4.5-1.5
						s-3.4-0.4-5.4-0.3c-0.4,0-0.9,0.1-1.3,0.1s-0.9,0.1-1.4,0.2c-0.5,0.1-0.9,0.2-1.4,0.3c-0.5,0.1-1,0.2-1.5,0.3l-32.2-51.5
						c0.5-0.1,1.1-0.3,1.6-0.4c0.5-0.1,1-0.2,1.5-0.3s1-0.2,1.5-0.2c0.5-0.1,1-0.1,1.4-0.1c2.1-0.2,4-0.1,5.8,0.2s3.4,0.8,4.8,1.6
						c1.5,0.7,2.8,1.7,3.9,2.8C617.5,379.9,618.5,381.1,619.3,382.6"/>
				</g>
			</g>
		</g>
		<path class="st3" d="M649.2,360.3l28.2,53c0.9,2,1.7,4.1,2.3,6.3s1.1,4.6,1.4,7s0.5,5,0.5,7.6c0,2.6-0.1,5.3-0.3,8.1l-28-50.8
			c0.3-3,0.4-5.9,0.4-8.7c0-2.8-0.2-5.6-0.6-8.2c-0.3-2.6-0.9-5.1-1.5-7.5C651,364.7,650.2,362.4,649.2,360.3"/>
		<path class="st3" d="M653.3,391.6l28,50.8c-0.1,0.9-0.2,1.8-0.3,2.7c-0.1,0.9-0.2,1.8-0.4,2.8s-0.3,1.9-0.5,2.8s-0.4,1.9-0.6,2.8
			l-28.2-49.9c0.2-1,0.5-2,0.7-3.1c0.2-1,0.4-2,0.5-3c0.2-1,0.3-2,0.4-3C653.1,393.5,653.2,392.5,653.3,391.6"/>
		<path class="st3" d="M651.4,403.6l28.2,49.9c-0.2,0.8-0.4,1.6-0.6,2.4s-0.4,1.6-0.6,2.4c-0.2,0.8-0.5,1.6-0.7,2.4
			s-0.5,1.6-0.8,2.4c0,0.1,0,0.1-0.1,0.2s0,0.1-0.1,0.2s0,0.1-0.1,0.2s0,0.1-0.1,0.2l-28.5-49c0-0.1,0-0.1,0.1-0.2s0-0.1,0.1-0.2
			c0-0.1,0-0.1,0.1-0.2c0-0.1,0-0.1,0.1-0.2c0.3-0.9,0.6-1.7,0.8-2.6c0.3-0.9,0.5-1.7,0.8-2.6c0.2-0.9,0.5-1.7,0.7-2.6
			C651,405.3,651.2,404.4,651.4,403.6"/>
		<path class="st3" d="M648.2,414.7l28.5,49c-0.4,1.2-0.8,2.3-1.2,3.5c-0.4,1.1-0.8,2.3-1.3,3.4c-0.4,1.1-0.9,2.3-1.4,3.4
			c-0.5,1.1-1,2.3-1.4,3.4l-29-47.9c0.5-1.2,1.1-2.4,1.6-3.7s1-2.5,1.5-3.7c0.5-1.2,1-2.5,1.4-3.7
			C647.3,417.2,647.8,416,648.2,414.7"/>
		<path class="st3" d="M642.4,429.6l29,47.9c-0.5,1.1-1,2.2-1.5,3.3c-0.5,1.1-1,2.2-1.6,3.2c-0.5,1.1-1.1,2.1-1.6,3.2
			c-0.6,1.1-1.1,2.1-1.7,3.2l-29.5-46.8c0.6-1.1,1.2-2.3,1.8-3.4s1.2-2.3,1.8-3.5c0.6-1.2,1.2-2.3,1.7-3.5
			C641.4,432,641.9,430.8,642.4,429.6"/>
		<path class="st3" d="M635.5,443.5l29.5,46.8c-0.6,1.1-1.2,2.1-1.8,3.1c-0.6,1-1.2,2.1-1.8,3.1c-0.6,1-1.3,2-1.9,3
			c-0.7,1-1.3,2-2,3l-30.2-45.8c0.7-1.1,1.5-2.2,2.2-3.2c0.7-1.1,1.4-2.2,2.1-3.3c0.7-1.1,1.3-2.2,2-3.4
			C634.2,445.8,634.8,444.7,635.5,443.5"/>
		<path class="st3" d="M627.3,456.9l30.2,45.8c-0.7,1-1.4,2-2.1,3s-1.5,2-2.2,3s-1.5,2-2.2,2.9c-0.8,1-1.5,1.9-2.3,2.8l-30.9-44.8
			c0.8-1,1.7-2,2.5-3.1c0.8-1,1.6-2.1,2.4-3.2c0.8-1.1,1.6-2.1,2.4-3.2C625.8,459.1,626.5,458,627.3,456.9"/>
		<path class="st3" d="M617.7,469.7l30.9,44.8c-0.8,1-1.7,2-2.5,3s-1.7,1.9-2.6,2.9s-1.8,1.9-2.7,2.8s-1.8,1.8-2.8,2.7L606.2,482
			c1-1,2-2,3-3s2-2,2.9-3c1-1,1.9-2.1,2.8-3.1C615.8,471.8,616.8,470.8,617.7,469.7"/>
		<path class="st3" d="M606.2,482l31.8,43.8c-1.1,1-2.2,2-3.3,3s-2.2,2-3.4,2.9s-2.3,1.9-3.4,2.8s-2.3,1.8-3.5,2.6l-33-42.8
			c1.3-0.9,2.5-1.9,3.8-2.8c1.3-1,2.5-2,3.7-3s2.5-2.1,3.7-3.2C603.8,484.3,605,483.2,606.2,482"/>
		<path class="st5" d="M591.4,494.4l33,42.8c-2.9,2.1-6,4-9,5.8c-3.1,1.8-6.2,3.3-9.4,4.8c-3.2,1.4-6.4,2.6-9.7,3.6s-6.6,1.8-10,2.4
			c-4,0.7-8,1.4-12,2.1c-4,0.7-8,1.4-11.9,2.1c-4,0.7-7.9,1.4-11.9,2.2c-4,0.7-7.9,1.4-11.8,2.2l-39.8-40.2
			c4.2-0.8,8.5-1.6,12.8-2.4c4.3-0.8,8.5-1.6,12.8-2.4c4.3-0.8,8.6-1.6,12.9-2.4c4.3-0.8,8.6-1.6,12.9-2.4c3.6-0.7,7.2-1.6,10.8-2.7
			s7-2.5,10.5-4c3.4-1.5,6.8-3.3,10.2-5.2C585,498.8,588.2,496.6,591.4,494.4"/>
		<g>
			<path class="st12" d="M616.2,342.2c8.5-0.7,15.6,1,21.2,4.5c5.6,3.5,9.8,8.9,12.5,15.6c2.7,6.7,4,14.7,3.7,23.5
				c-0.2,8.8-2,18.4-5.2,28.2c-4,12.2-9.4,23.9-16,34.8c-6.5,10.9-14.2,21-22.8,29.8c-8.5,8.8-18,16.3-28,22.1
				c-10,5.8-20.6,9.9-31.5,11.9c-4.3,0.8-8.6,1.6-12.9,2.4c-4.3,0.8-8.6,1.6-12.9,2.4c-4.3,0.8-8.5,1.6-12.8,2.4
				c-4.3,0.8-8.5,1.6-12.8,2.4c4.7-14,9.4-28,14-42c4.7-13.9,9.3-27.8,14-41.7c4.6-13.9,9.3-27.7,13.9-41.5
				c4.6-13.8,9.2-27.5,13.8-41.2c4.3-1,8.5-2,12.8-3s8.6-2,12.9-3c4.3-1,8.6-2,12.9-3s8.6-2,13-2.9c0.9-0.2,1.8-0.5,2.6-0.6
				c0.9-0.2,1.7-0.4,2.6-0.5c0.8-0.1,1.7-0.3,2.5-0.4C614.6,342.3,615.4,342.2,616.2,342.2z M619.6,419.6c1.9-5.8,3.1-11.6,3.4-17
				c0.3-5.5-0.1-10.6-1.5-14.9c-1.4-4.3-3.7-7.9-6.9-10.3c-3.3-2.4-7.5-3.6-12.9-3.1c-0.5,0-1,0.1-1.4,0.1c-0.5,0.1-1,0.1-1.5,0.2
				s-1,0.2-1.5,0.3s-1,0.2-1.6,0.4c-2.4,0.5-4.5,1-6.4,1.4c-1.9,0.4-3.7,0.8-5.5,1.2s-3.6,0.8-5.5,1.2s-4,0.9-6.4,1.4
				c-2.9,8.7-5.8,17.4-8.7,26c-2.9,8.7-5.8,17.4-8.7,26.1c-2.9,8.7-5.8,17.5-8.7,26.2c-2.9,8.8-5.8,17.5-8.8,26.3
				c2.4-0.5,4.4-0.9,6.4-1.2c1.9-0.4,3.7-0.7,5.5-1.1c1.8-0.3,3.6-0.7,5.5-1s4-0.8,6.4-1.2c6.5-1.4,12.9-4.1,18.8-7.8
				c6-3.7,11.6-8.5,16.8-14c5.1-5.5,9.7-11.7,13.7-18.3C614,433.9,617.2,426.8,619.6,419.6"/>
		</g>
	</g>
	<g>
		<g class="st2">
			<g>
				<path id="SVGID_00000106858470725237242000000015457054065524924565_" class="st3" d="M714.2,319.9l23,56.4
					c-4.2,13.2-8.5,26.5-12.8,39.7c-4.3,13.3-8.5,26.6-12.8,40c-4.3,13.4-8.6,26.8-12.9,40.2c-4.3,13.5-8.7,26.9-13,40.4l-27.8-43.3
					c4.7-14.6,9.5-29.2,14.2-43.8c4.7-14.5,9.4-29,14.1-43.5c4.7-14.4,9.3-28.9,14-43.2C704.9,348.5,709.5,334.2,714.2,319.9z"/>
			</g>
			<g>
				<defs>
					<path id="SVGID_00000013154387154423119220000010618791012581713338_" d="M714.2,319.9l23,56.4c-4.2,13.2-8.5,26.5-12.8,39.7
						c-4.3,13.3-8.5,26.6-12.8,40c-4.3,13.4-8.6,26.8-12.9,40.2c-4.3,13.5-8.7,26.9-13,40.4l-27.8-43.3c4.7-14.6,9.5-29.2,14.2-43.8
						c4.7-14.5,9.4-29,14.1-43.5c4.7-14.4,9.3-28.9,14-43.2C704.9,348.5,709.5,334.2,714.2,319.9z"/>
				</defs>
				<clipPath id="SVGID_00000155137880644438107510000012003248702124656822_">
					<use xlink:href="#SVGID_00000013154387154423119220000010618791012581713338_"  style="overflow:visible;"/>
				</clipPath>
				<g style="clip-path:url(#SVGID_00000155137880644438107510000012003248702124656822_);enable-background:new    ;">
					<path class="st3" d="M714.2,319.9l23,56.4c-4.2,13.2-8.5,26.5-12.8,39.7c-4.3,13.3-8.5,26.6-12.8,40
						c-4.3,13.4-8.6,26.8-12.9,40.2c-4.3,13.5-8.7,26.9-13,40.4l-27.8-43.3c4.7-14.6,9.5-29.2,14.2-43.8c4.7-14.5,9.4-29,14.1-43.5
						c4.7-14.4,9.3-28.9,14-43.2C704.9,348.5,709.5,334.2,714.2,319.9"/>
				</g>
			</g>
		</g>
		<g class="st2">
			<g>
				<path id="SVGID_00000065777182545935415540000002546194607455130814_" class="st5" d="M657.9,493.3l27.8,43.3
					c-2.2,0.3-4.4,0.7-6.6,1c-2.2,0.3-4.4,0.7-6.6,1s-4.4,0.7-6.6,1.1s-4.4,0.7-6.6,1.1l-29.9-42.8c2.4-0.4,4.7-0.8,7.1-1.2
					c2.4-0.4,4.7-0.8,7.1-1.2c2.4-0.4,4.8-0.8,7.1-1.2C653.2,494.1,655.5,493.7,657.9,493.3z"/>
			</g>
			<g>
				<defs>
					<path id="SVGID_00000141451837340345540860000012545301445484363172_" d="M657.9,493.3l27.8,43.3c-2.2,0.3-4.4,0.7-6.6,1
						c-2.2,0.3-4.4,0.7-6.6,1s-4.4,0.7-6.6,1.1s-4.4,0.7-6.6,1.1l-29.9-42.8c2.4-0.4,4.7-0.8,7.1-1.2c2.4-0.4,4.7-0.8,7.1-1.2
						c2.4-0.4,4.8-0.8,7.1-1.2C653.2,494.1,655.5,493.7,657.9,493.3z"/>
				</defs>
				<clipPath id="SVGID_00000129163440300517142330000000781329404251446409_">
					<use xlink:href="#SVGID_00000141451837340345540860000012545301445484363172_"  style="overflow:visible;"/>
				</clipPath>
				<g style="clip-path:url(#SVGID_00000129163440300517142330000000781329404251446409_);enable-background:new    ;">
					<path class="st5" d="M657.9,493.3l27.8,43.3c-2.2,0.3-4.4,0.7-6.6,1c-2.2,0.3-4.4,0.7-6.6,1s-4.4,0.7-6.6,1.1s-4.4,0.7-6.6,1.1
						l-29.9-42.8c2.4-0.4,4.7-0.8,7.1-1.2c2.4-0.4,4.7-0.8,7.1-1.2c2.4-0.4,4.8-0.8,7.1-1.2C653.2,494.1,655.5,493.7,657.9,493.3"/>
				</g>
			</g>
		</g>
		<g>
			<path class="st12" d="M714.2,319.9c-4.6,14.3-9.3,28.6-13.9,43c-4.7,14.4-9.3,28.8-14,43.2c-4.7,14.5-9.4,29-14.1,43.5
				c-4.7,14.6-9.5,29.1-14.2,43.8c-2.4,0.4-4.8,0.8-7.1,1.2c-2.4,0.4-4.8,0.8-7.1,1.2s-4.7,0.8-7.1,1.2s-4.7,0.8-7.1,1.2
				c4.7-14.5,9.5-29,14.2-43.4c4.7-14.4,9.4-28.8,14.1-43.2c4.7-14.3,9.3-28.6,14-42.9c4.7-14.2,9.3-28.5,13.9-42.7
				c2.4-0.5,4.7-1,7.1-1.5c2.4-0.5,4.8-1,7.1-1.5c2.4-0.5,4.8-1,7.1-1.5C709.4,320.9,711.8,320.4,714.2,319.9z"/>
		</g>
	</g>
	<g>
		<g class="st2">
			<g>
				<path id="SVGID_00000074414232979513235430000015138381439139028413_" class="st3" d="M743.4,341.9l20.3,55.1
					c-0.9,2.9-1.9,5.8-2.8,8.8s-1.9,5.8-2.8,8.8s-1.9,5.9-2.8,8.8s-1.9,5.9-2.8,8.8l-21.3-52.3c1-3.2,2-6.3,3-9.5c1-3.2,2-6.3,3-9.5
					c1-3.2,2-6.3,3-9.5S742.3,345.1,743.4,341.9z"/>
			</g>
			<g>
				<defs>
					<path id="SVGID_00000098932195925412560630000003220656487381493176_" d="M743.4,341.9l20.3,55.1c-0.9,2.9-1.9,5.8-2.8,8.8
						s-1.9,5.8-2.8,8.8s-1.9,5.9-2.8,8.8s-1.9,5.9-2.8,8.8l-21.3-52.3c1-3.2,2-6.3,3-9.5c1-3.2,2-6.3,3-9.5c1-3.2,2-6.3,3-9.5
						S742.3,345.1,743.4,341.9z"/>
				</defs>
				<clipPath id="SVGID_00000055698566198660927620000007249160240958371761_">
					<use xlink:href="#SVGID_00000098932195925412560630000003220656487381493176_"  style="overflow:visible;"/>
				</clipPath>
				<g style="clip-path:url(#SVGID_00000055698566198660927620000007249160240958371761_);enable-background:new    ;">
					<path class="st3" d="M743.4,341.9l20.3,55.1c-0.9,2.9-1.9,5.8-2.8,8.8s-1.9,5.8-2.8,8.8s-1.9,5.9-2.8,8.8s-1.9,5.9-2.8,8.8
						l-21.3-52.3c1-3.2,2-6.3,3-9.5c1-3.2,2-6.3,3-9.5c1-3.2,2-6.3,3-9.5S742.3,345.1,743.4,341.9"/>
				</g>
			</g>
		</g>
		<g class="st2">
			<g>
				<path id="SVGID_00000163778340190622137220000003984613011754617019_" class="st3" d="M720.9,412l22.2,49.8c-1,3.1-2,6.3-3,9.5
					c-1,3.1-2,6.3-3,9.5s-2,6.3-3,9.5c-1,3.2-2,6.3-3,9.5L707.7,453c1.1-3.4,2.2-6.9,3.3-10.3c1.1-3.4,2.2-6.8,3.3-10.3
					c1.1-3.4,2.2-6.8,3.3-10.2C718.7,418.8,719.8,415.4,720.9,412z"/>
			</g>
			<g>
				<defs>
					<path id="SVGID_00000028298469456602076210000008678480418828440491_" d="M720.9,412l22.2,49.8c-1,3.1-2,6.3-3,9.5
						c-1,3.1-2,6.3-3,9.5s-2,6.3-3,9.5c-1,3.2-2,6.3-3,9.5L707.7,453c1.1-3.4,2.2-6.9,3.3-10.3c1.1-3.4,2.2-6.8,3.3-10.3
						c1.1-3.4,2.2-6.8,3.3-10.2C718.7,418.8,719.8,415.4,720.9,412z"/>
				</defs>
				<clipPath id="SVGID_00000124144112820366853390000006329350450021358500_">
					<use xlink:href="#SVGID_00000028298469456602076210000008678480418828440491_"  style="overflow:visible;"/>
				</clipPath>
				<g style="clip-path:url(#SVGID_00000124144112820366853390000006329350450021358500_);enable-background:new    ;">
					<path class="st3" d="M720.9,412l22.2,49.8c-1,3.1-2,6.3-3,9.5c-1,3.1-2,6.3-3,9.5s-2,6.3-3,9.5c-1,3.2-2,6.3-3,9.5L707.7,453
						c1.1-3.4,2.2-6.9,3.3-10.3c1.1-3.4,2.2-6.8,3.3-10.3c1.1-3.4,2.2-6.8,3.3-10.2C718.7,418.8,719.8,415.4,720.9,412"/>
				</g>
			</g>
		</g>
		<g class="st2">
			<g>
				<path id="SVGID_00000014604263638902359480000012942459316893941128_" class="st3" d="M821.2,296.9l14.2,59.1
					c-0.8,2.5-1.6,5-2.3,7.5c-0.8,2.5-1.6,5-2.3,7.5s-1.6,5-2.3,7.5c-0.8,2.5-1.6,5-2.3,7.5l-15-56.6c0.8-2.7,1.7-5.4,2.6-8.1
					c0.8-2.7,1.7-5.4,2.6-8.1c0.8-2.7,1.7-5.4,2.6-8.1C819.5,302.3,820.4,299.6,821.2,296.9z"/>
			</g>
			<g>
				<defs>
					<path id="SVGID_00000131327184442760370180000006427473297286043299_" d="M821.2,296.9l14.2,59.1c-0.8,2.5-1.6,5-2.3,7.5
						c-0.8,2.5-1.6,5-2.3,7.5s-1.6,5-2.3,7.5c-0.8,2.5-1.6,5-2.3,7.5l-15-56.6c0.8-2.7,1.7-5.4,2.6-8.1c0.8-2.7,1.7-5.4,2.6-8.1
						c0.8-2.7,1.7-5.4,2.6-8.1C819.5,302.3,820.4,299.6,821.2,296.9z"/>
				</defs>
				<clipPath id="SVGID_00000125601873831851582620000012479921793490584211_">
					<use xlink:href="#SVGID_00000131327184442760370180000006427473297286043299_"  style="overflow:visible;"/>
				</clipPath>
				<g style="clip-path:url(#SVGID_00000125601873831851582620000012479921793490584211_);enable-background:new    ;">
					<path class="st3" d="M821.2,296.9l14.2,59.1c-0.8,2.5-1.6,5-2.3,7.5c-0.8,2.5-1.6,5-2.3,7.5s-1.6,5-2.3,7.5
						c-0.8,2.5-1.6,5-2.3,7.5l-15-56.6c0.8-2.7,1.7-5.4,2.6-8.1c0.8-2.7,1.7-5.4,2.6-8.1c0.8-2.7,1.7-5.4,2.6-8.1
						C819.5,302.3,820.4,299.6,821.2,296.9"/>
				</g>
			</g>
		</g>
		<g class="st2">
			<g>
				<path id="SVGID_00000148656205613654675070000016982448491924690325_" class="st5" d="M811,329.2l15,56.6
					c-5.2,0.9-10.5,1.9-15.7,2.8c-5.2,0.9-10.4,1.9-15.6,2.8c-5.2,0.9-10.4,1.9-15.6,2.8c-5.2,0.9-10.3,1.9-15.5,2.8l-20.3-55.1
					c5.6-1.1,11.2-2.1,16.8-3.2c5.6-1.1,11.2-2.1,16.9-3.2c5.6-1.1,11.3-2.1,17-3.2C799.6,331.3,805.3,330.2,811,329.2z"/>
			</g>
			<g>
				<defs>
					<path id="SVGID_00000150099156579105450280000000899518858092877467_" d="M811,329.2l15,56.6c-5.2,0.9-10.5,1.9-15.7,2.8
						c-5.2,0.9-10.4,1.9-15.6,2.8c-5.2,0.9-10.4,1.9-15.6,2.8c-5.2,0.9-10.3,1.9-15.5,2.8l-20.3-55.1c5.6-1.1,11.2-2.1,16.8-3.2
						c5.6-1.1,11.2-2.1,16.9-3.2c5.6-1.1,11.3-2.1,17-3.2C799.6,331.3,805.3,330.2,811,329.2z"/>
				</defs>
				<clipPath id="SVGID_00000106149713984000427930000004857148666131337658_">
					<use xlink:href="#SVGID_00000150099156579105450280000000899518858092877467_"  style="overflow:visible;"/>
				</clipPath>
				<g style="clip-path:url(#SVGID_00000106149713984000427930000004857148666131337658_);enable-background:new    ;">
					<path class="st5" d="M811,329.2l15,56.6c-5.2,0.9-10.5,1.9-15.7,2.8c-5.2,0.9-10.4,1.9-15.6,2.8c-5.2,0.9-10.4,1.9-15.6,2.8
						c-5.2,0.9-10.3,1.9-15.5,2.8l-20.3-55.1c5.6-1.1,11.2-2.1,16.8-3.2c5.6-1.1,11.2-2.1,16.9-3.2c5.6-1.1,11.3-2.1,17-3.2
						C799.6,331.3,805.3,330.2,811,329.2"/>
				</g>
			</g>
		</g>
		<g class="st2">
			<g>
				<path id="SVGID_00000094591070442380386980000017686055920540548256_" class="st3" d="M797.3,368.1l16.2,53.6
					c-0.8,2.5-1.6,5-2.4,7.5c-0.8,2.5-1.6,5-2.4,7.5s-1.6,5-2.4,7.5c-0.8,2.5-1.6,5-2.4,7.5l-17-51.1c0.9-2.7,1.7-5.5,2.6-8.2
					c0.9-2.7,1.7-5.4,2.6-8.2c0.9-2.7,1.7-5.4,2.6-8.2C795.6,373.5,796.5,370.8,797.3,368.1z"/>
			</g>
			<g>
				<defs>
					<path id="SVGID_00000178902917602598323270000002153804415566993809_" d="M797.3,368.1l16.2,53.6c-0.8,2.5-1.6,5-2.4,7.5
						c-0.8,2.5-1.6,5-2.4,7.5s-1.6,5-2.4,7.5c-0.8,2.5-1.6,5-2.4,7.5l-17-51.1c0.9-2.7,1.7-5.5,2.6-8.2c0.9-2.7,1.7-5.4,2.6-8.2
						c0.9-2.7,1.7-5.4,2.6-8.2C795.6,373.5,796.5,370.8,797.3,368.1z"/>
				</defs>
				<clipPath id="SVGID_00000127045177955437812920000015140354640914629807_">
					<use xlink:href="#SVGID_00000178902917602598323270000002153804415566993809_"  style="overflow:visible;"/>
				</clipPath>
				<g style="clip-path:url(#SVGID_00000127045177955437812920000015140354640914629807_);enable-background:new    ;">
					<path class="st3" d="M797.3,368.1l16.2,53.6c-0.8,2.5-1.6,5-2.4,7.5c-0.8,2.5-1.6,5-2.4,7.5s-1.6,5-2.4,7.5
						c-0.8,2.5-1.6,5-2.4,7.5l-17-51.1c0.9-2.7,1.7-5.5,2.6-8.2c0.9-2.7,1.7-5.4,2.6-8.2c0.9-2.7,1.7-5.4,2.6-8.2
						C795.6,373.5,796.5,370.8,797.3,368.1"/>
				</g>
			</g>
		</g>
		<g class="st2">
			<g>
				<path id="SVGID_00000000926174398014135960000006666417429432061600_" class="st5" d="M787,400.7l17,51.1
					c-5.1,0.8-10.2,1.6-15.3,2.5c-5.1,0.8-10.2,1.6-15.3,2.5c-5.1,0.8-10.2,1.7-15.2,2.5c-5.1,0.8-10.1,1.7-15.2,2.5L720.9,412
					c5.5-1,10.9-1.9,16.4-2.9c5.5-1,11-1.9,16.5-2.8c5.5-0.9,11-1.9,16.6-2.8C775.9,402.6,781.4,401.6,787,400.7z"/>
			</g>
			<g>
				<defs>
					<path id="SVGID_00000051377569560472241470000000226566332933560490_" d="M787,400.7l17,51.1c-5.1,0.8-10.2,1.6-15.3,2.5
						c-5.1,0.8-10.2,1.6-15.3,2.5c-5.1,0.8-10.2,1.7-15.2,2.5c-5.1,0.8-10.1,1.7-15.2,2.5L720.9,412c5.5-1,10.9-1.9,16.4-2.9
						c5.5-1,11-1.9,16.5-2.8c5.5-0.9,11-1.9,16.6-2.8C775.9,402.6,781.4,401.6,787,400.7z"/>
				</defs>
				<clipPath id="SVGID_00000042725570897721420300000009845352451955852208_">
					<use xlink:href="#SVGID_00000051377569560472241470000000226566332933560490_"  style="overflow:visible;"/>
				</clipPath>
				<g style="clip-path:url(#SVGID_00000042725570897721420300000009845352451955852208_);enable-background:new    ;">
					<path class="st5" d="M787,400.7l17,51.1c-5.1,0.8-10.2,1.6-15.3,2.5c-5.1,0.8-10.2,1.6-15.3,2.5c-5.1,0.8-10.2,1.7-15.2,2.5
						c-5.1,0.8-10.1,1.7-15.2,2.5L720.9,412c5.5-1,10.9-1.9,16.4-2.9c5.5-1,11-1.9,16.5-2.8c5.5-0.9,11-1.9,16.6-2.8
						C775.9,402.6,781.4,401.6,787,400.7"/>
				</g>
			</g>
		</g>
		<g class="st2">
			<g>
				<path id="SVGID_00000027588275176673693700000011560928441317764276_" class="st3" d="M775.2,442.2l18,47.9
					c-0.8,2.5-1.6,5.1-2.4,7.7s-1.6,5.1-2.4,7.7c-0.8,2.6-1.6,5.1-2.4,7.7c-0.8,2.6-1.6,5.1-2.4,7.7l-18.9-45.4
					c0.9-2.8,1.8-5.5,2.6-8.3c0.9-2.8,1.8-5.5,2.6-8.3c0.9-2.8,1.8-5.5,2.6-8.3C773.5,447.7,774.4,444.9,775.2,442.2z"/>
			</g>
			<g>
				<defs>
					<path id="SVGID_00000180361791229601485930000009964403460466908091_" d="M775.2,442.2l18,47.9c-0.8,2.5-1.6,5.1-2.4,7.7
						s-1.6,5.1-2.4,7.7c-0.8,2.6-1.6,5.1-2.4,7.7c-0.8,2.6-1.6,5.1-2.4,7.7l-18.9-45.4c0.9-2.8,1.8-5.5,2.6-8.3
						c0.9-2.8,1.8-5.5,2.6-8.3c0.9-2.8,1.8-5.5,2.6-8.3C773.5,447.7,774.4,444.9,775.2,442.2z"/>
				</defs>
				<clipPath id="SVGID_00000150822767155647719820000017103242435134418080_">
					<use xlink:href="#SVGID_00000180361791229601485930000009964403460466908091_"  style="overflow:visible;"/>
				</clipPath>
				<g style="clip-path:url(#SVGID_00000150822767155647719820000017103242435134418080_);enable-background:new    ;">
					<path class="st3" d="M775.2,442.2l18,47.9c-0.8,2.5-1.6,5.1-2.4,7.7s-1.6,5.1-2.4,7.7c-0.8,2.6-1.6,5.1-2.4,7.7
						c-0.8,2.6-1.6,5.1-2.4,7.7l-18.9-45.4c0.9-2.8,1.8-5.5,2.6-8.3c0.9-2.8,1.8-5.5,2.6-8.3c0.9-2.8,1.8-5.5,2.6-8.3
						C773.5,447.7,774.4,444.9,775.2,442.2"/>
				</g>
			</g>
		</g>
		<g class="st2">
			<g>
				<path id="SVGID_00000003805268970714382710000010960566603927295879_" class="st5" d="M764.7,475.4l18.9,45.4
					c-7.5,1.1-15,2.1-22.4,3.2c-7.4,1.1-14.9,2.2-22.3,3.3c-7.4,1.1-14.8,2.2-22.1,3.3c-7.3,1.1-14.7,2.2-22,3.4l-26.4-43.6
					c7.9-1.3,15.9-2.5,23.8-3.8c8-1.3,16-2.5,24-3.7c8-1.2,16.1-2.5,24.1-3.7C748.5,477.9,756.6,476.6,764.7,475.4z"/>
			</g>
			<g>
				<defs>
					<path id="SVGID_00000073711337680982564610000009965530115888663203_" d="M764.7,475.4l18.9,45.4c-7.5,1.1-15,2.1-22.4,3.2
						c-7.4,1.1-14.9,2.2-22.3,3.3c-7.4,1.1-14.8,2.2-22.1,3.3c-7.3,1.1-14.7,2.2-22,3.4l-26.4-43.6c7.9-1.3,15.9-2.5,23.8-3.8
						c8-1.3,16-2.5,24-3.7c8-1.2,16.1-2.5,24.1-3.7C748.5,477.9,756.6,476.6,764.7,475.4z"/>
				</defs>
				<clipPath id="SVGID_00000106139154694844791990000005229442957262897560_">
					<use xlink:href="#SVGID_00000073711337680982564610000009965530115888663203_"  style="overflow:visible;"/>
				</clipPath>
				<g style="clip-path:url(#SVGID_00000106139154694844791990000005229442957262897560_);enable-background:new    ;">
					<path class="st5" d="M764.7,475.4l18.9,45.4c-7.5,1.1-15,2.1-22.4,3.2c-7.4,1.1-14.9,2.2-22.3,3.3c-7.4,1.1-14.8,2.2-22.1,3.3
						c-7.3,1.1-14.7,2.2-22,3.4l-26.4-43.6c7.9-1.3,15.9-2.5,23.8-3.8c8-1.3,16-2.5,24-3.7c8-1.2,16.1-2.5,24.1-3.7
						C748.5,477.9,756.6,476.6,764.7,475.4"/>
				</g>
			</g>
		</g>
		<g>
			<path class="st12" d="M821.2,296.9c-0.8,2.7-1.7,5.4-2.6,8.1c-0.8,2.7-1.7,5.4-2.6,8.1c-0.8,2.7-1.7,5.4-2.6,8.1
				c-0.8,2.7-1.7,5.4-2.6,8.1c-5.7,1-11.4,2.1-17,3.2c-5.7,1.1-11.3,2.1-17,3.2c-5.6,1.1-11.3,2.1-16.9,3.2
				c-5.6,1.1-11.2,2.1-16.8,3.2c-1,3.2-2,6.3-3,9.5c-1,3.2-2,6.3-3,9.5c-1,3.2-2,6.3-3,9.5c-1,3.2-2,6.3-3,9.5c5.5-1,10.9-2,16.4-3
				c5.5-1,11-2,16.5-3c5.5-1,11-2,16.6-3c5.5-1,11.1-2,16.7-2.9c-0.9,2.7-1.7,5.4-2.6,8.1c-0.9,2.7-1.7,5.4-2.6,8.2
				c-0.9,2.7-1.7,5.4-2.6,8.2c-0.9,2.7-1.7,5.5-2.6,8.2c-5.6,0.9-11.1,1.9-16.7,2.8c-5.5,0.9-11.1,1.9-16.6,2.8
				c-5.5,0.9-11,1.9-16.5,2.8c-5.5,1-11,1.9-16.4,2.9c-1.1,3.4-2.2,6.8-3.3,10.2c-1.1,3.4-2.2,6.8-3.3,10.2
				c-1.1,3.4-2.2,6.8-3.3,10.3s-2.2,6.9-3.3,10.3c5.6-0.9,11.2-1.8,16.8-2.8c5.6-0.9,11.2-1.8,16.8-2.7c5.6-0.9,11.3-1.8,16.9-2.7
				c5.7-0.9,11.3-1.8,17-2.7c-0.9,2.8-1.8,5.5-2.6,8.3s-1.8,5.5-2.6,8.3s-1.8,5.5-2.6,8.3c-0.9,2.8-1.8,5.5-2.6,8.3
				c-8.1,1.2-16.2,2.4-24.3,3.6c-8.1,1.2-16.1,2.5-24.1,3.7c-8,1.2-16,2.5-24,3.7c-8,1.2-15.9,2.5-23.8,3.8
				c4.7-14.7,9.5-29.3,14.2-44c4.7-14.6,9.4-29.2,14.1-43.7c4.7-14.5,9.4-29,14-43.4c4.7-14.4,9.3-28.8,13.9-43.2
				c7.9-1.6,15.9-3.2,23.9-4.9c8-1.6,16-3.2,24-4.8c8-1.6,16.1-3.2,24.2-4.8C805,300,813.1,298.4,821.2,296.9z"/>
		</g>
	</g>
	<g>
		<g class="st2">
			<g>
				<path id="SVGID_00000083802007976856197000000002629737105821917840_" class="st3" d="M882,288l14.8,59.8
					c-3.9,9.4-7.9,18.8-11.8,28.2c-4,9.4-7.9,18.8-11.9,28.3c-4,9.5-7.9,18.9-11.9,28.4s-8,19-12,28.5l-19.1-50.3
					c4.4-10.3,8.7-20.6,13-30.9c4.3-10.3,8.7-20.5,13-30.8c4.3-10.2,8.6-20.4,12.9-30.6C873.5,308.3,877.7,298.1,882,288z"/>
			</g>
			<g>
				<defs>
					<path id="SVGID_00000054259444437344622590000003200059894552344975_" d="M882,288l14.8,59.8c-3.9,9.4-7.9,18.8-11.8,28.2
						c-4,9.4-7.9,18.8-11.9,28.3c-4,9.5-7.9,18.9-11.9,28.4s-8,19-12,28.5l-19.1-50.3c4.4-10.3,8.7-20.6,13-30.9
						c4.3-10.3,8.7-20.5,13-30.8c4.3-10.2,8.6-20.4,12.9-30.6C873.5,308.3,877.7,298.1,882,288z"/>
				</defs>
				<clipPath id="SVGID_00000121246920867909453730000013377159087153749395_">
					<use xlink:href="#SVGID_00000054259444437344622590000003200059894552344975_"  style="overflow:visible;"/>
				</clipPath>
				<g style="clip-path:url(#SVGID_00000121246920867909453730000013377159087153749395_);enable-background:new    ;">
					<path class="st3" d="M882,288l14.8,59.8c-3.9,9.4-7.9,18.8-11.8,28.2c-4,9.4-7.9,18.8-11.9,28.3c-4,9.5-7.9,18.9-11.9,28.4
						s-8,19-12,28.5l-19.1-50.3c4.4-10.3,8.7-20.6,13-30.9c4.3-10.3,8.7-20.5,13-30.8c4.3-10.2,8.6-20.4,12.9-30.6
						C873.5,308.3,877.7,298.1,882,288"/>
				</g>
			</g>
		</g>
		<g class="st2">
			<g>
				<path id="SVGID_00000088129928065024235240000005843435591083185328_" class="st5" d="M830.2,410.8l19.1,50.3
					c-2.7,0.4-5.1,0.7-7.3,1c-2.2,0.3-4.3,0.6-6.3,0.9s-4.1,0.5-6.3,0.9c-2.2,0.3-4.6,0.6-7.3,1l-21.4-49.9c3-0.4,5.5-0.8,7.9-1.1
					s4.6-0.6,6.8-1c2.2-0.3,4.4-0.6,6.8-1C824.6,411.5,827.2,411.2,830.2,410.8z"/>
			</g>
			<g>
				<defs>
					<path id="SVGID_00000070109647080685471870000011979031013258198152_" d="M830.2,410.8l19.1,50.3c-2.7,0.4-5.1,0.7-7.3,1
						c-2.2,0.3-4.3,0.6-6.3,0.9s-4.1,0.5-6.3,0.9c-2.2,0.3-4.6,0.6-7.3,1l-21.4-49.9c3-0.4,5.5-0.8,7.9-1.1s4.6-0.6,6.8-1
						c2.2-0.3,4.4-0.6,6.8-1C824.6,411.5,827.2,411.2,830.2,410.8z"/>
				</defs>
				<clipPath id="SVGID_00000113325847872226574660000012917205124913442980_">
					<use xlink:href="#SVGID_00000070109647080685471870000011979031013258198152_"  style="overflow:visible;"/>
				</clipPath>
				<g style="clip-path:url(#SVGID_00000113325847872226574660000012917205124913442980_);enable-background:new    ;">
					<path class="st5" d="M830.2,410.8l19.1,50.3c-2.7,0.4-5.1,0.7-7.3,1c-2.2,0.3-4.3,0.6-6.3,0.9s-4.1,0.5-6.3,0.9
						c-2.2,0.3-4.6,0.6-7.3,1l-21.4-49.9c3-0.4,5.5-0.8,7.9-1.1s4.6-0.6,6.8-1c2.2-0.3,4.4-0.6,6.8-1
						C824.6,411.5,827.2,411.2,830.2,410.8"/>
				</g>
			</g>
		</g>
		<g>
			<path class="st12" d="M841.3,294.6c3.4-0.6,6.8-1.1,10.2-1.7c3.4-0.6,6.8-1.1,10.2-1.7c3.4-0.5,6.8-1.1,10.2-1.7
				c3.4-0.5,6.8-1.1,10.2-1.7c-4.3,10.2-8.6,20.3-12.9,30.5c-4.3,10.2-8.6,20.4-12.9,30.6c-4.3,10.2-8.7,20.5-13,30.8
				c-4.3,10.3-8.7,20.6-13,30.9c-3,0.4-5.6,0.8-8,1.1s-4.6,0.6-6.8,1s-4.4,0.6-6.8,1s-5,0.7-7.9,1.1c3.4-10.1,6.8-20.2,10.2-30.3
				c3.4-10.1,6.8-20.1,10.2-30.1c3.4-10,6.8-20,10.2-30C834.5,314.5,837.9,304.5,841.3,294.6z"/>
		</g>
		<path class="st30" d="M821.8,437.2c0.6,1.6,1.5,3.6,2.1,5.2c0.3,0.8,0.7,1.8,1,2.6c0.6,1.5,1.5,3.5,2.1,5.1c0.6,1.5,1.4,3.5,2,5
			c0.3,0.7,0.7,1.7,1,2.5c0.6,1.5,1.4,3.4,2,4.9c0.6,1.4,1.4,3.4,2,4.8c0.3,0.7,0.7,1.6,1,2.4c0.6,1.4,1.3,3.3,1.9,4.7
			c0.6,1.4,1.3,3.2,1.9,4.6c0.3,0.7,0.7,1.6,0.9,2.3c0.5,1.3,1.3,3.1,1.8,4.5c0.3,0.8,0.6,1.7,0.7,2.6c0.2,0.9,0.2,1.9,0.2,2.9
			c0,1-0.2,2.1-0.4,3.1s-0.6,2.2-1,3.4c-1,2.6-2.5,5.3-4.3,7.8s-3.9,4.8-6.3,6.9c-2.4,2.1-5,3.8-7.8,5.2c-2.8,1.4-5.8,2.4-8.8,2.8
			c-0.1,0-0.2,0-0.4,0c-0.1,0-0.2,0-0.4,0c-0.1,0-0.2,0-0.4,0c-0.1,0-0.2,0-0.4,0c-1.2,0.1-2.4,0-3.4-0.2s-2-0.6-2.9-1
			s-1.7-1.1-2.3-1.8c-0.7-0.7-1.2-1.5-1.7-2.4l0,0c-7.8-15.2-15.5-30.4-23.2-45.6c0.5,1,1.1,1.8,1.8,2.6c0.7,0.8,1.6,1.4,2.5,1.9
			c1,0.5,2,0.9,3.2,1.1c1.2,0.2,2.4,0.3,3.7,0.2c0.1,0,0.3,0,0.4,0s0.3,0,0.4,0s0.3,0,0.4,0c0.1,0,0.3,0,0.4-0.1
			c3.3-0.5,6.6-1.6,9.6-3.1c3-1.5,5.9-3.5,8.5-5.7c2.6-2.2,4.9-4.8,6.8-7.5c1.9-2.7,3.5-5.5,4.7-8.4c0.5-1.2,0.9-2.5,1.1-3.6
			c0.3-1.2,0.4-2.3,0.5-3.4c0-1.1,0-2.1-0.2-3.1C822.4,439,822.1,438.1,821.8,437.2z"/>
		<path class="st3" d="M821.8,437.2l19.8,48.3c0.2,0.5,0.3,0.9,0.5,1.4c0.1,0.5,0.2,1,0.3,1.5c0.1,0.5,0.1,1,0.1,1.6
			c0,0.5,0,1.1,0,1.7l-19.7-47.8c0-0.6,0.1-1.2,0.1-1.8c0-0.6-0.1-1.2-0.1-1.7s-0.2-1.1-0.3-1.6C822.1,438.2,822,437.7,821.8,437.2"
			/>
		<path class="st3" d="M822.7,444l19.7,47.8c0,0.2,0,0.5-0.1,0.7c0,0.2-0.1,0.5-0.1,0.7s-0.1,0.5-0.1,0.8s-0.1,0.5-0.2,0.8
			l-19.8-47.5c0.1-0.3,0.1-0.5,0.2-0.8s0.1-0.5,0.2-0.8c0-0.3,0.1-0.5,0.1-0.8S822.7,444.2,822.7,444"/>
		<path class="st3" d="M822.1,447.2l19.8,47.5c-0.1,0.2-0.1,0.4-0.2,0.7c-0.1,0.2-0.1,0.5-0.2,0.7c-0.1,0.2-0.2,0.5-0.2,0.7
			c-0.1,0.2-0.2,0.5-0.3,0.7l-19.9-47.3c0.1-0.2,0.2-0.5,0.3-0.8s0.2-0.5,0.2-0.7c0.1-0.2,0.2-0.5,0.2-0.7
			C822,447.7,822.1,447.4,822.1,447.2"/>
		<path class="st3" d="M821.2,450.1l19.9,47.3c0,0,0,0,0,0s0,0,0,0s0,0,0,0c0,0,0,0,0,0c-0.1,0.3-0.2,0.6-0.3,0.8s-0.2,0.6-0.4,0.8
			c-0.1,0.3-0.3,0.6-0.4,0.8s-0.3,0.6-0.4,0.8l-20-47c0.2-0.3,0.3-0.6,0.5-0.9c0.2-0.3,0.3-0.6,0.4-0.9s0.3-0.6,0.4-0.9
			S821,450.5,821.2,450.1C821.1,450.2,821.1,450.2,821.2,450.1C821.1,450.2,821.1,450.2,821.2,450.1
			C821.2,450.1,821.1,450.1,821.2,450.1C821.2,450.1,821.2,450.1,821.2,450.1"/>
		<path class="st3" d="M819.5,453.9l20,47c-0.2,0.3-0.3,0.6-0.5,0.9c-0.2,0.3-0.3,0.6-0.5,0.9c-0.2,0.3-0.3,0.6-0.5,0.8
			s-0.4,0.6-0.5,0.8l-20.2-46.7c0.2-0.3,0.4-0.6,0.6-0.9c0.2-0.3,0.4-0.6,0.6-0.9c0.2-0.3,0.4-0.6,0.5-0.9
			C819.1,454.5,819.3,454.2,819.5,453.9"/>
		<path class="st3" d="M817.2,457.5l20.2,46.7c-0.2,0.3-0.4,0.6-0.6,0.8s-0.4,0.5-0.6,0.8c-0.2,0.3-0.4,0.5-0.6,0.8
			c-0.2,0.3-0.4,0.5-0.7,0.8l-20.4-46.4c0.2-0.3,0.5-0.6,0.7-0.9c0.2-0.3,0.5-0.6,0.7-0.9c0.2-0.3,0.4-0.6,0.7-0.9
			C816.8,458.1,817,457.8,817.2,457.5"/>
		<path class="st3" d="M814.6,461.1l20.4,46.4c-0.2,0.3-0.5,0.5-0.7,0.8s-0.5,0.5-0.7,0.8s-0.5,0.5-0.7,0.8s-0.5,0.5-0.8,0.8
			l-20.7-46.2c0.3-0.3,0.5-0.5,0.8-0.8s0.5-0.6,0.8-0.8s0.5-0.6,0.8-0.9S814.3,461.4,814.6,461.1"/>
		<path class="st3" d="M811.4,464.5l20.7,46.2c-0.3,0.3-0.5,0.5-0.8,0.8s-0.5,0.5-0.8,0.8c-0.3,0.2-0.6,0.5-0.9,0.7
			c-0.3,0.2-0.6,0.5-0.9,0.7l-21-45.9c0.3-0.2,0.6-0.5,1-0.8s0.6-0.5,0.9-0.8s0.6-0.5,0.9-0.8C810.8,465,811.1,464.8,811.4,464.5"/>
		<path class="st3" d="M807.7,467.7l21,45.9c-0.3,0.3-0.7,0.5-1,0.8c-0.3,0.2-0.7,0.5-1,0.7s-0.7,0.5-1,0.7s-0.7,0.4-1.1,0.6
			l-21.3-45.6c0.4-0.2,0.8-0.5,1.2-0.7s0.8-0.5,1.1-0.7c0.4-0.2,0.8-0.5,1.1-0.8C807,468.2,807.4,468,807.7,467.7"/>
		<path class="st5" d="M803.2,470.7l21.3,45.6c-0.8,0.5-1.7,0.9-2.5,1.3c-0.9,0.4-1.8,0.8-2.7,1.1c-0.9,0.3-1.8,0.6-2.7,0.8
			s-1.8,0.4-2.8,0.6c-0.1,0-0.2,0-0.4,0c-0.1,0-0.2,0-0.4,0c-0.1,0-0.2,0-0.4,0c-0.1,0-0.2,0-0.4,0c-1.2,0.1-2.4,0-3.4-0.2
			s-2-0.6-2.9-1s-1.7-1.1-2.3-1.8c-0.7-0.7-1.2-1.5-1.7-2.4l-23.2-45.6c0.5,1,1.1,1.8,1.8,2.6c0.7,0.8,1.6,1.4,2.5,1.9
			c1,0.5,2,0.9,3.2,1.1c1.2,0.2,2.4,0.3,3.7,0.2c0.1,0,0.3,0,0.4,0s0.3,0,0.4,0s0.3,0,0.4,0c0.1,0,0.3,0,0.4-0.1c1-0.2,2-0.4,3-0.6
			c1-0.3,2-0.6,3-0.9c1-0.4,1.9-0.8,2.9-1.2C801.4,471.7,802.3,471.2,803.2,470.7"/>
		<g>
			<path class="st12" d="M810.1,430.6c2.5-0.2,4.8,0.3,6.6,1.2c1.9,0.9,3.3,2.3,4.4,4.1c1,1.8,1.6,4,1.6,6.4c0,2.4-0.5,5.1-1.6,7.9
				c-1.1,2.9-2.7,5.7-4.7,8.4c-1.9,2.7-4.2,5.2-6.8,7.5s-5.4,4.2-8.5,5.7s-6.3,2.6-9.6,3.1c-0.1,0-0.3,0-0.4,0.1c-0.1,0-0.3,0-0.4,0
				s-0.3,0-0.4,0s-0.3,0-0.4,0c-2.5,0.2-4.8-0.3-6.6-1.2s-3.3-2.3-4.4-4.1c-1-1.8-1.6-3.9-1.6-6.3s0.5-5,1.5-7.7
				c1.2-2.9,2.7-5.8,4.7-8.5s4.2-5.3,6.8-7.5c2.6-2.3,5.4-4.2,8.5-5.8c3-1.5,6.3-2.7,9.7-3.2c0.1,0,0.3,0,0.4-0.1
				c0.1,0,0.3,0,0.4-0.1c0.1,0,0.3,0,0.4,0S810,430.6,810.1,430.6z"/>
		</g>
	</g>
</g>
</svg>
